<svg xmlns="http://www.w3.org/2000/svg" width="80" height="80" viewBox="0 0 80 80">
    <g id="prefix__ic_health" transform="translate(-1529 -4155)">
        <rect id="prefix__Rectangle_41" width="80" height="80" data-name="Rectangle 41" rx="15" transform="translate(1529 4155)" style="fill:#fff"/>
        <g id="prefix__ic_health-2" data-name="ic_health" transform="translate(1544 4167.427)">
            <path id="prefix__Path_121" d="M41.8 23.5a2.106 2.106 0 1 1 2.1-2.105 2.11 2.11 0 0 1-2.1 2.105zm0-2.471a.364.364 0 0 0-.366.363c0 .4.729.4.729 0a.359.359 0 0 0-.363-.36zm0-6.52a6.884 6.884 0 0 0-1.435 13.621v11.326c0 5.317-4.989 9.646-11.116 9.646a12.035 12.035 0 0 1-7.926-2.866 9.063 9.063 0 0 1-3.192-6.78V28.17c5.544-.556 9.883-4.7 9.883-9.772V12.05a4.328 4.328 0 1 0-2.471-.064V18.4c0 4.087-3.879 7.412-8.648 7.412a9.287 9.287 0 0 1-6.184-2.248A6.744 6.744 0 0 1 8.248 18.4v-6.35a4.328 4.328 0 1 0-2.471-.064V18.4a9.165 9.165 0 0 0 3.313 7.027 11.542 11.542 0 0 0 6.57 2.745v11.282a11.513 11.513 0 0 0 4.03 8.635 14.5 14.5 0 0 0 9.559 3.484c7.494 0 13.589-5.438 13.589-12.117V28.175A6.871 6.871 0 0 0 41.8 14.511zM25.029 7.9a1.853 1.853 0 1 1 1.853 1.85 1.854 1.854 0 0 1-1.853-1.85zm-19.766 0a1.853 1.853 0 1 1 1.853 1.85A1.854 1.854 0 0 1 5.263 7.9zM41.8 25.81a4.414 4.414 0 1 1 4.41-4.415 4.42 4.42 0 0 1-4.41 4.415z" data-name="Path 121" style="fill:#28a4a2"/>
        </g>
    </g>
</svg>
