<svg xmlns="http://www.w3.org/2000/svg" width="80" height="80" viewBox="0 0 80 80">
    <defs>
        <style>
            .prefix__cls-2{fill:#28a4a2}
        </style>
    </defs>
    <g id="prefix__ic_money" transform="translate(-1529 -4155)">
        <rect id="prefix__Rectangle_41" width="80" height="80" data-name="Rectangle 41" rx="15" transform="translate(1529 4155)" style="fill:#fff"/>
        <g id="prefix__ic_money-2" data-name="ic_money" transform="translate(1545 4136.785)">
            <g id="prefix__Group_101" data-name="Group 101" transform="translate(9.235 63.612)">
                <g id="prefix__Group_99" data-name="Group 99" transform="translate(28.125)">
                    <path id="prefix__Path_110" d="M398.509 318.786h1.406v1.406h-1.406z" class="prefix__cls-2" data-name="Path 110" transform="translate(-398.509 -318.786)"/>
                </g>
                <g id="prefix__Group_100" data-name="Group 100">
                    <path id="prefix__Path_111" d="M98.509 318.786h1.406v1.406h-1.406z" class="prefix__cls-2" data-name="Path 111" transform="translate(-98.509 -318.786)"/>
                </g>
            </g>
            <path id="prefix__Path_112" d="M169.5 247.9a8.109 8.109 0 1 0 8.109-8.109 8.119 8.119 0 0 0-8.109 8.109zm14.813 0a6.7 6.7 0 1 1-6.7-6.7 6.711 6.711 0 0 1 6.7 6.7z" class="prefix__cls-2" data-name="Path 112" transform="translate(-153.609 -183.58)"/>
            <path id="prefix__Path_113" d="M227.409 267.764v.51a2.89 2.89 0 0 0-2.182 2.8v.352a2.533 2.533 0 0 0 2.182 2.5v2.8a1.481 1.481 0 0 1-.776-1.326h-1.406a2.89 2.89 0 0 0 2.182 2.823v.51h1.406v-.51a2.89 2.89 0 0 0 2.182-2.8v-.352a2.533 2.533 0 0 0-2.182-2.5v-2.8a1.481 1.481 0 0 1 .776 1.326H231a2.89 2.89 0 0 0-2.182-2.823v-.51h-1.406zm0 4.728a1.124 1.124 0 0 1-.776-1.067v-.352a1.48 1.48 0 0 1 .776-1.3zm2.182 2.585v.352a1.48 1.48 0 0 1-.776 1.3v-2.72a1.124 1.124 0 0 1 .776 1.067z" class="prefix__cls-2" data-name="Path 113" transform="translate(-204.112 -208.935)"/>
            <path id="prefix__Path_114" d="M0 177.785v27.844h7.827v-1.406H1.406v-25.032h45.188v25.031H9.233v1.406H48v-27.843z" class="prefix__cls-2" data-name="Path 114" transform="translate(0 -127.392)"/>
            <path id="prefix__Path_115" d="M33.382 230h35.611l-.074-.77a2.768 2.768 0 0 1 2.753-3.027h.7v-14.621h-.7a2.769 2.769 0 0 1-2.766-2.766c0-.165.006-.187.087-1.031h-7.285v1.406h5.809a4.181 4.181 0 0 0 3.452 3.738v11.931a4.181 4.181 0 0 0-3.452 3.738H34.858a4.181 4.181 0 0 0-3.452-3.738v-11.931a4.18 4.18 0 0 0 3.452-3.738H60.3v-1.406H33.382l.074.77a2.768 2.768 0 0 1-2.753 3.027H30v14.625h.7a2.769 2.769 0 0 1 2.766 2.766c.003.164-.003.186-.084 1.027z" class="prefix__cls-2" data-name="Path 115" transform="translate(-27.188 -154.579)"/>
            <path id="prefix__Path_116" d="M289.811 97.633l-.333-.7-8.108 4.867.724 1.206 6.842-4.107a4.174 4.174 0 0 0 4.884 1.429l1.463 2.437 1.206-.724-2.156-3.593-.6.362a2.765 2.765 0 0 1-3.918-1.179z" class="prefix__cls-2" data-name="Path 116" transform="translate(-254.992 -54.12)"/>
            <path id="prefix__Path_117" d="M246.934 47.922l-6.427-10.707-17.437 10.466.724 1.206 16.232-9.743 5.7 9.5z" class="prefix__cls-2" data-name="Path 117" transform="translate(-202.157)"/>
        </g>
    </g>
</svg>
