<svg xmlns="http://www.w3.org/2000/svg" width="80" height="80" viewBox="0 0 80 80">
    <defs>
        <style>
            .prefix__cls-2{fill:#28a4a2}
        </style>
    </defs>
    <g id="prefix__ic_hand" transform="translate(-1529 -4155)">
        <rect id="prefix__Rectangle_41" width="80" height="80" fill="#fff" data-name="Rectangle 41" rx="15" transform="translate(1529 4155)"/>
        <g id="prefix__ic_hand-2" data-name="ic_hand" transform="translate(1545 4177)">
            <path id="prefix__Path_118" d="M153.134 180.934h-5.552a.937.937 0 0 0-.937.938v.792h-5.838a.933.933 0 0 0-.359.071l-7.479 3.1a3.488 3.488 0 0 0-1.877 4.581l.025.06a3.6 3.6 0 0 0 .924 1.292 7.185 7.185 0 0 1-3.492.068l-7.342-1.681a3.4 3.4 0 0 0-1.6 6.613l8.76 2.227a9.036 9.036 0 0 0 5.554-.348l11.142-4.37h1.579v.493a.938.938 0 0 0 .938.938h5.552a.937.937 0 0 0 .938-.937v-12.9a.937.937 0 0 0-.936-.937zm-8.246 11.466a.941.941 0 0 0-.342.064l-11.307 4.436a7.17 7.17 0 0 1-4.407.275l-8.76-2.227a1.526 1.526 0 0 1 .717-2.967l7.342 1.681a9.053 9.053 0 0 0 5.286-.376l2.131-.819c.044-.015.088-.031.131-.048l4.8-1.849.1-.039a.938.938 0 1 0-.673-1.75l-.109.042-4.886 1.879a1.682 1.682 0 0 1-2.071-.958l-.026-.06a1.612 1.612 0 0 1 .868-2.117l7.307-3.024h5.652v7.857zm7.309 1.431h-3.677v-11.022h3.68zm0 0" class="prefix__cls-2" data-name="Path 118" transform="translate(-106.072 -163.971)"/>
            <path id="prefix__Path_119" d="M9.13 16.571h-1.7v-8.76h.26a4.406 4.406 0 0 0 2-.483.924.924 0 0 0 .085-.049l6.071-3.961a2.527 2.527 0 0 1 2.609.243l.438.327-.078.114c-.116.168-.227.34-.332.516a9.1 9.1 0 0 0-1.218 3.544 2.828 2.828 0 0 0 .308 5.639h6.94a1.436 1.436 0 0 1 .579 2.751 1.22 1.22 0 0 1-.166.061h-.014a1.431 1.431 0 0 1-.4.055h-7.884a.937.937 0 1 0 0 1.875h7.886a3.328 3.328 0 0 0 .713-.077 9.36 9.36 0 0 0 1.189.078 9.223 9.223 0 1 0-6.284-15.971l-.556-.415a4.414 4.414 0 0 0-4.627-.389.966.966 0 0 0-.084.049L8.794 5.679a2.523 2.523 0 0 1-1.106.256h-.26V5.6a.937.937 0 0 0-.937-.937H.937A.937.937 0 0 0 0 5.6v12.89a.937.937 0 0 0 .937.938H6.49a.937.937 0 0 0 .937-.937v-.044h1.7a.937.937 0 1 0 0-1.875zm7.491-5.7a.951.951 0 0 1 .6-.886 9.119 9.119 0 0 0 .341 1.838.953.953 0 0 1-.941-.951zm17.143-1.648a7.36 7.36 0 0 1-6.226 7.262 3.337 3.337 0 0 0 .287-1.351 3.293 3.293 0 0 0-.411-1.6 1.961 1.961 0 0 0 1.655-1.934v-1.388A1.967 1.967 0 0 0 27.1 8.247h-1.371a.09.09 0 0 1-.09-.09V6.849a.09.09 0 0 1 .09-.089H27.1a.09.09 0 0 1 .09.089.937.937 0 1 0 1.875 0A1.967 1.967 0 0 0 27.354 4.9v-.323a.938.938 0 0 0-1.875 0V4.9a1.966 1.966 0 0 0-1.715 1.947v1.31a1.967 1.967 0 0 0 1.965 1.965H27.1a.09.09 0 0 1 .09.09V11.6a.089.089 0 0 1-.09.089h-1.371a.09.09 0 0 1-.09-.089v-.127a.938.938 0 0 0-1.875 0v.127a2 2 0 0 0 .014.226h-4.237a7.361 7.361 0 0 1 .654-6.51 7.484 7.484 0 0 1 .709-.948 7.347 7.347 0 0 1 12.86 4.858zm-28.212 8.33H1.875V6.534h3.677zm0 0" class="prefix__cls-2" data-name="Path 119"/>
            <path id="prefix__Path_120" d="M128.8 177.186a.936.936 0 1 0-.116 1.183.943.943 0 0 0 .116-1.183zm0 0" class="prefix__cls-2" data-name="Path 120" transform="translate(-115.168 -160.197)"/>
        </g>
    </g>
</svg>
