<svg xmlns="http://www.w3.org/2000/svg" id="prefix__ic_government" width="64" height="66.553" viewBox="0 0 64 66.553">
    <defs>
        <style>
            .prefix__cls-1{fill:#fff}
        </style>
    </defs>
    <path id="prefix__Path_101" d="M60.313 57.754V42.208a2.685 2.685 0 0 0-2.682-2.682h-8.655V39.2v-7.393a2.784 2.784 0 0 0-2.266-2.731V23.94a2.946 2.946 0 0 0-2.669-2.929 12.234 12.234 0 0 0-1.725-4.46.988.988 0 1 0-1.667 1.062A10.244 10.244 0 0 1 42.025 21H21.974a10.263 10.263 0 0 1 7.508-7.822 10.392 10.392 0 0 1 5.035 0 10.148 10.148 0 0 1 3.758 1.835.988.988 0 1 0 1.212-1.562 12.118 12.118 0 0 0-3.739-1.975V7.511a3.022 3.022 0 0 0-2.76-3.006V.989a.989.989 0 1 0-1.977 0V4.5a3.022 3.022 0 0 0-2.76 3.006v3.965a12.246 12.246 0 0 0-8.292 9.536 2.946 2.946 0 0 0-2.668 2.929v5.135a2.783 2.783 0 0 0-2.267 2.731v7.719H6.369a2.685 2.685 0 0 0-2.682 2.681v15.552A4.554 4.554 0 0 0 0 62.218v3.347a.989.989 0 0 0 1.977 0v-3.347a2.572 2.572 0 0 1 2.57-2.57h2.969a.989.989 0 1 0 0-1.977H5.664V45.8h9.36v11.87h-2.676a.989.989 0 1 0 0 1.977h47.1a2.573 2.573 0 0 1 2.57 2.57v3.347a.989.989 0 1 0 1.977 0v-3.346a4.554 4.554 0 0 0-3.682-4.464zM31.27 6.47h1.46a1.042 1.042 0 0 1 1.041 1.041v3.507a12.471 12.471 0 0 0-3.543 0V7.511A1.042 1.042 0 0 1 31.27 6.47zM57.631 41.5a.705.705 0 0 1 .7.7v1.616h-9.36V41.5zM41.593 52.626a.989.989 0 0 0-.989.989v4.056h-4.418V45.8H40.6v3.786a.989.989 0 0 0 1.977 0V45.8H47v11.87h-4.419v-4.055a.988.988 0 0 0-.988-.989zM17 40.518v-.58l15-4.574 15 4.574v.58a.116.116 0 0 0 0 .013v3.3H17zM27.814 45.8v11.87H23.4V45.8zm1.977 0h4.418v11.87h-4.418zM17.8 31h3.407a.989.989 0 0 0 0-1.977h-1.939V23.94a.966.966 0 0 1 .965-.965h23.534a.966.966 0 0 1 .965.965v5.086H25.659a.989.989 0 0 0 0 1.977H46.2a.8.8 0 0 1 .8.8v6.061l-14.71-4.486a.988.988 0 0 0-.577 0L17 37.868v-6.061a.8.8 0 0 1 .8-.807zM5.664 43.824v-1.616a.706.706 0 0 1 .7-.7h8.655v2.32zM17 45.8h4.419v11.87H17V45.8zm31.975 11.87V45.8h9.36v11.87zm0 0" class="prefix__cls-1" data-name="Path 101"/>
    <path id="prefix__Path_102" d="M177.369 292.122a.993.993 0 0 0 .287-.043l7.87-2.386 8.088 2.388a.988.988 0 0 0 .56-1.9l-8.371-2.472a.987.987 0 0 0-.567 0l-8.154 2.472a.989.989 0 0 0 .286 1.935zm0 0" class="prefix__cls-1" data-name="Path 102" transform="translate(-153.453 -250.279)"/>
    <path id="prefix__Path_103" d="M165.157 190.649v-1.438a.989.989 0 1 0-1.977 0v1.438a.989.989 0 0 0 1.977 0zm0 0" class="prefix__cls-1" data-name="Path 103" transform="translate(-141.969 -163.756)"/>
    <path id="prefix__Path_104" d="M194.328 191.637a.988.988 0 0 0 .989-.989v-1.437a.988.988 0 1 0-1.977 0v1.437a.988.988 0 0 0 .988.989zm0 0" class="prefix__cls-1" data-name="Path 104" transform="translate(-168.208 -163.756)"/>
    <path id="prefix__Path_105" d="M224.485 191.637a.988.988 0 0 0 .989-.989v-1.437a.989.989 0 1 0-1.977 0v1.437a.988.988 0 0 0 .988.989zm0 0" class="prefix__cls-1" data-name="Path 105" transform="translate(-194.445 -163.756)"/>
    <path id="prefix__Path_106" d="M254.641 191.637a.988.988 0 0 0 .989-.989v-1.437a.989.989 0 1 0-1.977 0v1.437a.989.989 0 0 0 .988.989zm0 0" class="prefix__cls-1" data-name="Path 106" transform="translate(-220.681 -163.756)"/>
    <path id="prefix__Path_107" d="M284.8 191.637a.988.988 0 0 0 .989-.989v-1.437a.989.989 0 1 0-1.977 0v1.437a.988.988 0 0 0 .988.989zm0 0" class="prefix__cls-1" data-name="Path 107" transform="translate(-246.921 -163.756)"/>
    <path id="prefix__Path_108" d="M314.961 191.637a.988.988 0 0 0 .989-.989v-1.437a.988.988 0 1 0-1.977 0v1.437a.988.988 0 0 0 .988.989zm0 0" class="prefix__cls-1" data-name="Path 108" transform="translate(-273.16 -163.756)"/>
</svg>
