<svg xmlns="http://www.w3.org/2000/svg" width="64" height="64.003" viewBox="0 0 64 64.003">
    <g id="prefix__ic_calendar" transform="translate(-2.143 -1.875)">
        <path id="prefix__Path_109" d="M56.985 7.21H51.65V1.875h-3.555V7.21H19.652V1.875H16.1V7.21h-5.335a8.9 8.9 0 0 0-8.89 8.89v40.888a8.9 8.9 0 0 0 8.89 8.89h46.22a8.9 8.9 0 0 0 8.89-8.89V16.1a8.9 8.9 0 0 0-8.89-8.89zm5.331 49.775a5.338 5.338 0 0 1-5.331 5.331h-46.22a5.339 5.339 0 0 1-5.335-5.331v-32h56.886zm0-35.554H5.43V16.1a5.34 5.34 0 0 1 5.335-5.335H16.1v3.555h3.552v-3.555h28.443v3.555h3.555v-3.555h5.335a5.336 5.336 0 0 1 5.331 5.335z" data-name="Path 109" transform="translate(.268)" style="fill:#fff"/>
    </g>
</svg>
