<svg xmlns="http://www.w3.org/2000/svg" width="79" height="79" viewBox="0 0 79 79">
    <defs>
        <style>
            .prefix__cls-2{fill:#fff;stroke:#c89539}
        </style>
    </defs>
    <g id="prefix__ic_authority" transform="translate(-1672.173 -2229)">
        <rect id="prefix__Rectangle_22" width="79" height="79" data-name="Rectangle 22" rx="15" transform="translate(1672.173 2229)" style="fill:#c89539"/>
        <g id="prefix__ic_authority-2" data-name="ic_authority" transform="translate(1680.173 2229.008)">
            <path id="prefix__Path_1168" d="M61 60.008h-2v-31a1 1 0 0 0-1-1H47v-10a1 1 0 0 0-1-1H18a1 1 0 0 0-1 1v10H6a1 1 0 0 0-1 1v31H3a1 1 0 1 0 0 2h58a1 1 0 0 0 0-2zm-44 0H7v-30h10zm14 0h-4v-13h4zm6 0h-4v-13h4zm8-31v31h-6v-13h1a1 1 0 0 0 0-2H24a1 1 0 1 0 0 2h1v13h-6v-41h26zm12 31H47v-30h10z" class="prefix__cls-2" data-name="Path 1168"/>
            <path id="prefix__Path_1169" d="M22 27.008h4a1 1 0 0 0 1-1v-4a1 1 0 0 0-1-1h-4a1 1 0 0 0-1 1v4a1 1 0 0 0 1 1zm1-4h2v2h-2z" class="prefix__cls-2" data-name="Path 1169"/>
            <path id="prefix__Path_1170" d="M30 27.008h4a1 1 0 0 0 1-1v-4a1 1 0 0 0-1-1h-4a1 1 0 0 0-1 1v4a1 1 0 0 0 1 1zm1-4h2v2h-2z" class="prefix__cls-2" data-name="Path 1170"/>
            <path id="prefix__Path_1171" d="M38 27.008h4a1 1 0 0 0 1-1v-4a1 1 0 0 0-1-1h-4a1 1 0 0 0-1 1v4a1 1 0 0 0 1 1zm1-4h2v2h-2z" class="prefix__cls-2" data-name="Path 1171"/>
            <path id="prefix__Path_1172" d="M22 35.008h4a1 1 0 0 0 1-1v-4a1 1 0 0 0-1-1h-4a1 1 0 0 0-1 1v4a1 1 0 0 0 1 1zm1-4h2v2h-2z" class="prefix__cls-2" data-name="Path 1172"/>
            <path id="prefix__Path_1173" d="M30 35.008h4a1 1 0 0 0 1-1v-4a1 1 0 0 0-1-1h-4a1 1 0 0 0-1 1v4a1 1 0 0 0 1 1zm1-4h2v2h-2z" class="prefix__cls-2" data-name="Path 1173"/>
            <path id="prefix__Path_1174" d="M38 35.008h4a1 1 0 0 0 1-1v-4a1 1 0 0 0-1-1h-4a1 1 0 0 0-1 1v4a1 1 0 0 0 1 1zm1-4h2v2h-2z" class="prefix__cls-2" data-name="Path 1174"/>
            <path id="prefix__Path_1175" d="M22 43.008h4a1 1 0 0 0 1-1v-4a1 1 0 0 0-1-1h-4a1 1 0 0 0-1 1v4a1 1 0 0 0 1 1zm1-4h2v2h-2z" class="prefix__cls-2" data-name="Path 1175"/>
            <path id="prefix__Path_1176" d="M30 43.008h4a1 1 0 0 0 1-1v-4a1 1 0 0 0-1-1h-4a1 1 0 0 0-1 1v4a1 1 0 0 0 1 1zm1-4h2v2h-2z" class="prefix__cls-2" data-name="Path 1176"/>
            <path id="prefix__Path_1177" d="M38 43.008h4a1 1 0 0 0 1-1v-4a1 1 0 0 0-1-1h-4a1 1 0 0 0-1 1v4a1 1 0 0 0 1 1zm1-4h2v2h-2z" class="prefix__cls-2" data-name="Path 1177"/>
            <path id="prefix__Path_1181" d="M10 38.008h4a1 1 0 0 0 1-1v-4a1 1 0 0 0-1-1h-4a1 1 0 0 0-1 1v4a1 1 0 0 0 1 1zm1-4h2v2h-2z" class="prefix__cls-2" data-name="Path 1181"/>
            <path id="prefix__Path_1182" d="M50 38.008h4a1 1 0 0 0 1-1v-4a1 1 0 0 0-1-1h-4a1 1 0 0 0-1 1v4a1 1 0 0 0 1 1zm1-4h2v2h-2z" class="prefix__cls-2" data-name="Path 1182"/>
            <path id="prefix__Path_1183" d="M10 46.008h4a1 1 0 0 0 1-1v-4a1 1 0 0 0-1-1h-4a1 1 0 0 0-1 1v4a1 1 0 0 0 1 1zm1-4h2v2h-2z" class="prefix__cls-2" data-name="Path 1183"/>
            <path id="prefix__Path_1184" d="M50 46.008h4a1 1 0 0 0 1-1v-4a1 1 0 0 0-1-1h-4a1 1 0 0 0-1 1v4a1 1 0 0 0 1 1zm1-4h2v2h-2z" class="prefix__cls-2" data-name="Path 1184"/>
        </g>
    </g>
</svg>
