<svg xmlns="http://www.w3.org/2000/svg" width="79" height="79" viewBox="0 0 79 79">
    <defs>
        <style>
            .prefix__cls-2{fill:#fff}
        </style>
    </defs>
    <g id="prefix__ic_people" transform="translate(-1672.173 -2229)">
        <rect id="prefix__Rectangle_22" width="79" height="79" data-name="Rectangle 22" rx="15" transform="translate(1672.173 2229)" style="fill:#c89539"/>
        <g id="prefix__ic_people-2" data-name="ic_people" transform="translate(2297.173 1937)">
            <g id="prefix__Group_337" data-name="Group 337" transform="translate(-610 307)">
                <path id="prefix__Path_1162" d="M-436.666 307a3.3 3.3 0 0 1 1.6 1.065 2.72 2.72 0 0 1 .556 1.606c.011 1.656.038 3.311.044 4.967a3.447 3.447 0 0 1-.913 2.253c-.411.488-.894.914-1.326 1.385a3.867 3.867 0 0 0-.37.634c1 0 1.837-.01 2.678 0a4.075 4.075 0 0 1 3.83 2.788c.216.626.14.869-.4 1.224a15.051 15.051 0 0 1-10.964 2.244c-.108-.017-.214-.045-.319-.073a.722.722 0 0 1-.586-.826.719.719 0 0 1 .84-.569c.511.059 1.018.155 1.53.2a13.3 13.3 0 0 0 8.168-1.827 2.882 2.882 0 0 0 .274-.209 2.648 2.648 0 0 0-2.356-1.536c-.779-.039-1.562-.017-2.343.007a.523.523 0 0 0-.368.252 2.291 2.291 0 0 1-2.127 1.371 2.278 2.278 0 0 1-2.157-1.391c-.05-.1-.186-.237-.282-.237-.936 0-1.877-.028-2.806.061a2.534 2.534 0 0 0-2 1.506c.469.258.931.5 1.381.764a.673.673 0 0 1 .364.863.668.668 0 0 1-.722.474.825.825 0 0 1-.352-.113q-.918-.514-1.827-1.044a.759.759 0 0 1-.344-.966 4.108 4.108 0 0 1 3.839-2.97c.842-.01 1.685 0 2.693 0a4.547 4.547 0 0 0-.387-.677c-.545-.639-1.147-1.232-1.655-1.9a2.826 2.826 0 0 1-.52-1.9c.036-.764.032-1.531.014-2.3a.6.6 0 0 0-.242-.429 2.12 2.12 0 0 1-1.048-1.827 16.07 16.07 0 0 1 .014-2.06c.026-.283.281-.546.431-.818zm-5.782 4.945a1.053 1.053 0 0 0-.072.188c-.019.718-.011 1.438-.059 2.154a2.255 2.255 0 0 0 .517 1.606 3.845 3.845 0 0 0 .749.832 2.634 2.634 0 0 1 1.189 2.851.832.832 0 0 0 .909.945.868.868 0 0 0 .877-.942c0-.39 0-.781-.016-1.171a1.155 1.155 0 0 1 .473-1.01 12.539 12.539 0 0 0 1.088-1.029 2.742 2.742 0 0 0 .893-2.314 17.872 17.872 0 0 1-.026-1.826 2.05 2.05 0 0 0-.035-.284zm-1.379-3.54c0 .5-.011.939 0 1.374.017.557.249.779.818.784.78.008 1.56 0 2.341 0 1.264 0 2.528.008 3.792 0a.88.88 0 0 0 .877-1.241 1.312 1.312 0 0 0-1.367-.916c-1.186-.007-2.372 0-3.558 0z" class="prefix__cls-2" data-name="Path 1162" transform="translate(463.196 -307)"/>
                <path id="prefix__Path_1163" d="M-610 637.627a4.421 4.421 0 0 1 1.875-2.426 3.87 3.87 0 0 1 2-.576h2.739a5.318 5.318 0 0 0-.412-.686c-.537-.626-1.129-1.208-1.63-1.861a2.871 2.871 0 0 1-.548-1.942c.036-.748.009-1.5.026-2.249a.5.5 0 0 0-.281-.518 2.029 2.029 0 0 1-1.021-1.788c-.023-.687-.016-1.375 0-2.062.01-.549.266-.81.808-.812 2.422-.008 4.843-.029 7.265 0a2.655 2.655 0 0 1 2.685 2.767c.013 1.609.042 3.217.054 4.826a3.62 3.62 0 0 1-1.009 2.407c-.385.449-.837.839-1.238 1.275a3.747 3.747 0 0 0-.368.641c1.011 0 1.868-.009 2.724 0a4.028 4.028 0 0 1 3.8 2.816c.194.6.12.831-.419 1.178a14.815 14.815 0 0 1-11.1 2.2c-.572-.106-.856-.429-.77-.854s.467-.648 1.032-.539a13.413 13.413 0 0 0 4.054.169 13.425 13.425 0 0 0 5.686-1.965 2.446 2.446 0 0 0-2.223-1.591c-.811-.029-1.625-.016-2.437 0a.426.426 0 0 0-.326.163 2.3 2.3 0 0 1-2.26 1.448 2.335 2.335 0 0 1-2.173-1.613c-.916 0-1.84-.051-2.755.014a2.591 2.591 0 0 0-2.221 1.562c.43.234.838.457 1.247.677.5.27.662.612.474 1.012a.729.729 0 0 1-1.12.259c-.734-.429-1.438-.911-2.154-1.37zm5.438-9.972c0 .848.025 1.6-.008 2.342a2.027 2.027 0 0 0 .448 1.483c.5.574 1.072 1.084 1.569 1.66a1.911 1.911 0 0 1 .424.874 6.35 6.35 0 0 1 0 1.211.9.9 0 0 0 .918 1 .887.887 0 0 0 .884-.983c-.006-.39 0-.78-.016-1.17a1.155 1.155 0 0 1 .461-.968 9.646 9.646 0 0 0 1.265-1.243 2.8 2.8 0 0 0 .685-1.294 27.691 27.691 0 0 0 .032-2.917zm-1.218-3.53a1.963 1.963 0 0 0-.034.23c0 .374-.01.749 0 1.123.014.55.252.789.811.8.577.011 1.154 0 1.731 0 1.45 0 2.9.009 4.351 0 .652 0 1.057-.406 1.01-.964a1.273 1.273 0 0 0-1.187-1.181c-2.214-.02-4.427-.008-6.682-.008z" class="prefix__cls-2" data-name="Path 1163" transform="translate(610 -593.099)"/>
                <path id="prefix__Path_1164" d="M-274.327 634.681c1.008 0 1.865-.01 2.722 0a4.046 4.046 0 0 1 3.813 2.922.774.774 0 0 1-.351 1c-.6.356-1.206.718-1.826 1.044a.709.709 0 0 1-1.037-.293.7.7 0 0 1 .391-.967c.432-.243.87-.477 1.33-.728a2.64 2.64 0 0 0-2.315-1.568c-.794-.043-1.593-.02-2.389 0a.517.517 0 0 0-.376.233 2.29 2.29 0 0 1-2.163 1.376 2.277 2.277 0 0 1-2.125-1.363.561.561 0 0 0-.41-.245c-.765-.024-1.531-.036-2.3-.005a2.682 2.682 0 0 0-2.373 1.545 11.56 11.56 0 0 0 3 1.428 13.53 13.53 0 0 0 6.746.438 1.147 1.147 0 0 1 .792.114.873.873 0 0 1 .268.68.633.633 0 0 1-.647.569 33.923 33.923 0 0 1-4.006.24 14.137 14.137 0 0 1-7.183-2.42c-.553-.365-.626-.583-.415-1.219a4.016 4.016 0 0 1 3.773-2.783c.857-.012 1.714 0 2.736 0a4.456 4.456 0 0 0-.392-.665c-.506-.571-1.069-1.095-1.541-1.692a3.226 3.226 0 0 1-.662-2.372 18.932 18.932 0 0 0 .025-2.107.561.561 0 0 0-.245-.378 2.15 2.15 0 0 1-1.057-1.915v-1.921c0-.615.237-.867.837-.868 2.406-.005 4.811-.018 7.217.005a2.673 2.673 0 0 1 2.709 2.752c.015 1.64.017 3.28.027 4.92a3.625 3.625 0 0 1-1.045 2.39c-.363.426-.8.792-1.176 1.206a3.588 3.588 0 0 0-.352.647zm-5.5-6.964a15.053 15.053 0 0 1-.014 1.922 2.868 2.868 0 0 0 1.2 2.784 2.856 2.856 0 0 1 1.246 2.973.821.821 0 0 0 .875.884.878.878 0 0 0 .908-.871c.006-.248-.033-.5-.044-.747a1.723 1.723 0 0 1 .757-1.735 2.512 2.512 0 0 0 .709-.674 4.543 4.543 0 0 0 .964-1.615 17.9 17.9 0 0 0 .044-2.921zm-1.3-3.51c0 .491-.014.928 0 1.363a.686.686 0 0 0 .721.756c2.106.014 4.213.019 6.319 0a.849.849 0 0 0 .844-1.087 1.274 1.274 0 0 0-1.339-1.059q-3.089-.008-6.179 0c-.1-.003-.206.014-.364.027z" class="prefix__cls-2" data-name="Path 1164" transform="translate(315.727 -593.154)"/>
                <path id="prefix__Path_1165" d="M-438.9 693.636a15.409 15.409 0 0 1-8.246-2.375c-.2-.123-.437-.34-.46-.536a.842.842 0 0 1 .271-.709 1.124 1.124 0 0 1 .855.015c1.085.467 2.109 1.1 3.224 1.465a13.933 13.933 0 0 0 11.591-1.238c.136-.077.266-.164.4-.242a.726.726 0 0 1 1.067.173.726.726 0 0 1-.319 1.033 13.849 13.849 0 0 1-4.493 1.918c-1.274.273-2.576.416-3.866.617z" class="prefix__cls-2" data-name="Path 1165" transform="translate(462.832 -653.974)"/>
                <path id="prefix__Path_1166" d="M-234.362 464.188c-.131.943-.271 2.055-.447 3.161-.085.537-.443.8-.854.719-.453-.094-.648-.459-.537-1.01a14.178 14.178 0 0 0-2.829-12.1.81.81 0 0 1-.167-.982.619.619 0 0 1 .766-.293 1 1 0 0 1 .446.311 15.349 15.349 0 0 1 3.387 7.684c.109.772.147 1.553.235 2.51z" class="prefix__cls-2" data-name="Path 1166" transform="translate(274.052 -439.901)"/>
                <path id="prefix__Path_1167" d="M-521.632 464.293a16.154 16.154 0 0 1 3.538-10.443c.341-.425.75-.5 1.091-.222s.366.679.014 1.112a14.153 14.153 0 0 0-3.151 7.764 13.642 13.642 0 0 0 .306 4.415.723.723 0 0 1-.734.976.683.683 0 0 1-.641-.638c-.168-1.17-.334-2.339-.423-2.964z" class="prefix__cls-2" data-name="Path 1167" transform="translate(529.916 -439.734)"/>
            </g>
        </g>
    </g>
</svg>
