<svg xmlns="http://www.w3.org/2000/svg" width="48" height="48" viewBox="0 0 48 48">
  <defs>
    <style>
      .cls-1 {
        fill: #28a4a2;
      }

      .cls-2 {
        fill: #fff;
      }
    </style>
  </defs>
  <g id="ic_authority" transform="translate(-1666 -4767)">
    <rect id="Rectangle_41" data-name="Rectangle 41" class="cls-1" width="48" height="48" rx="8" transform="translate(1666 4767)"/>
    <path id="ic_authority-2" data-name="ic_authority" class="cls-2" d="M25.375,24.3v-6.54a1.13,1.13,0,0,0-1.128-1.128H20.6v-.136s0,0,0,0V13.382a1.171,1.171,0,0,0-.953-1.149V10.072A1.239,1.239,0,0,0,18.528,8.84,5.147,5.147,0,0,0,17.8,6.964a.416.416,0,1,0-.7.447,4.31,4.31,0,0,1,.579,1.424H9.245A4.318,4.318,0,0,1,12.4,5.543a4.372,4.372,0,0,1,2.118,0,4.269,4.269,0,0,1,1.581.772.416.416,0,1,0,.51-.657,5.1,5.1,0,0,0-1.573-.831V3.16A1.271,1.271,0,0,0,13.879,1.9V.416a.416.416,0,1,0-.832,0V1.9A1.271,1.271,0,0,0,11.886,3.16V4.828A5.152,5.152,0,0,0,8.4,8.84a1.239,1.239,0,0,0-1.123,1.232v2.161a1.171,1.171,0,0,0-.954,1.149v3.111h0v.136H2.679a1.129,1.129,0,0,0-1.128,1.128V24.3A1.916,1.916,0,0,0,0,26.176v1.408a.416.416,0,0,0,.832,0V26.176a1.082,1.082,0,0,1,1.081-1.081H3.162a.416.416,0,1,0,0-.832H2.383V19.269H6.321v4.994H5.2a.416.416,0,1,0,0,.832H25.013a1.082,1.082,0,0,1,1.081,1.081v1.408a.416.416,0,0,0,.832,0V26.176A1.916,1.916,0,0,0,25.375,24.3ZM13.156,2.722h.614a.438.438,0,0,1,.438.438V4.635a5.247,5.247,0,0,0-1.49,0V3.16A.438.438,0,0,1,13.156,2.722ZM24.246,17.461a.3.3,0,0,1,.3.3v.68H20.6v-.976ZM17.5,22.141a.416.416,0,0,0-.416.416v1.706H15.224V19.269h1.859v1.593a.416.416,0,0,0,.832,0V19.269h1.859v4.994H17.914V22.556A.416.416,0,0,0,17.5,22.141ZM7.152,17.046h0V16.8l6.31-1.924,6.31,1.924v.244a.049.049,0,0,0,0,.005v1.387H7.152ZM11.7,19.269v4.994H9.843V19.269Zm.832,0h1.859v4.994H12.534ZM7.49,13.044H8.924a.416.416,0,1,0,0-.832H8.106v-2.14a.406.406,0,0,1,.406-.406h9.9a.406.406,0,0,1,.406.406v2.14H10.795a.416.416,0,0,0,0,.832h8.64a.338.338,0,0,1,.338.338v2.55l-6.189-1.887a.416.416,0,0,0-.243,0L7.153,15.932v-2.55A.338.338,0,0,1,7.49,13.044ZM2.383,18.437v-.68a.3.3,0,0,1,.3-.3H6.321v.976Zm4.77.832H9.011v4.994H7.153V19.269ZM20.6,24.263V19.269h3.938v4.994Zm0,0" transform="translate(1677 4775.417)"/>
  </g>
</svg>
