<svg xmlns="http://www.w3.org/2000/svg" width="48" height="48" viewBox="0 0 48 48">
  <defs>
    <style>
      .cls-1 {
        fill: #28a4a2;
      }

      .cls-2 {
        fill: #fff;
      }
    </style>
  </defs>
  <g id="ic_people" transform="translate(-1666 -4767)">
    <rect id="Rectangle_41" data-name="Rectangle 41" class="cls-1" width="48" height="48" rx="11" transform="translate(1666 4767)"/>
    <g id="ic_people-2" data-name="ic_people" transform="translate(1675.6 4776.6)">
      <path id="Path_1111" data-name="Path 1111" class="cls-2" d="M10.025,4.05A2.025,2.025,0,1,0,8,2.025,2.017,2.017,0,0,0,10.025,4.05Zm0-3.15A1.114,1.114,0,0,1,11.15,2.025a1.125,1.125,0,1,1-2.25,0A1.114,1.114,0,0,1,10.025.9Z" transform="translate(-6.2)"/>
      <path id="Path_1112" data-name="Path 1112" class="cls-2" d="M117.17,17a3.036,3.036,0,0,1-1.17.9h1.17a.624.624,0,0,1,.63.607V24.29a.1.1,0,0,1-.09.09v.9h.022a.975.975,0,0,0,.945-.99V18.507A1.493,1.493,0,0,0,117.17,17Z" transform="translate(-89.9 -13.175)"/>
      <path id="Path_1113" data-name="Path 1113" class="cls-2" d="M104.025,4.05A2.025,2.025,0,1,0,102,2.025a2.017,2.017,0,0,0,2.025,2.025Zm0-3.15a1.114,1.114,0,0,1,1.125,1.125,1.125,1.125,0,0,1-2.25,0A1.114,1.114,0,0,1,104.025.9Z" transform="translate(-79.05)"/>
      <path id="Path_1114" data-name="Path 1114" class="cls-2" d="M112.52,62a3.037,3.037,0,0,1-1.17.9h1.17a.624.624,0,0,1,.63.607V69.29a.1.1,0,0,1-.09.09h-.585V67.85a.45.45,0,0,0-.9,0v7.988c0,.068-.045.113-.068.113h-.832V72.575a.451.451,0,0,0-.45-.45.38.38,0,0,0-.225.068V76.85h1.507a1.014,1.014,0,0,0,.967-1.013V70.28h.585a.984.984,0,0,0,.99-.99V63.508A1.527,1.527,0,0,0,112.52,62Z" transform="translate(-85.25 -48.05)"/>
      <path id="Path_1115" data-name="Path 1115" class="cls-2" d="M102,47.025A2.025,2.025,0,1,0,104.025,45,2.017,2.017,0,0,0,102,47.025Zm2.025-1.125a1.125,1.125,0,1,1-1.125,1.125A1.114,1.114,0,0,1,104.025,45.9Z" transform="translate(-79.05 -34.875)"/>
      <path id="Path_1116" data-name="Path 1116" class="cls-2" d="M53.925,5.85A2.925,2.925,0,1,0,51,2.925,2.919,2.919,0,0,0,53.925,5.85Zm0-4.95A2.025,2.025,0,1,1,51.9,2.925,2.017,2.017,0,0,1,53.925.9Z" transform="translate(-39.525)"/>
      <path id="Path_1117" data-name="Path 1117" class="cls-2" d="M23.17,17.9a.624.624,0,0,1,.63.607V24.29a.1.1,0,0,1-.09.09v.247a3.043,3.043,0,0,1,.09.653.978.978,0,0,0,.9-.968V18.507A1.527,1.527,0,0,0,23.17,17a3.036,3.036,0,0,1-1.17.9Z" transform="translate(-17.05 -13.175)"/>
      <path id="Path_1118" data-name="Path 1118" class="cls-2" d="M8,47.025A2.025,2.025,0,1,0,10.025,45,2.017,2.017,0,0,0,8,47.025Zm3.15,0A1.125,1.125,0,1,1,10.025,45.9,1.114,1.114,0,0,1,11.15,47.025Z" transform="translate(-6.2 -34.875)"/>
      <path id="Path_1119" data-name="Path 1119" class="cls-2" d="M58.5,40.25a2.25,2.25,0,1,0-2.25,2.25A2.257,2.257,0,0,0,58.5,40.25ZM56.25,41.6a1.35,1.35,0,1,1,1.35-1.35A1.354,1.354,0,0,1,56.25,41.6Z" transform="translate(-41.85 -29.45)"/>
      <path id="Path_1120" data-name="Path 1120" class="cls-2" d="M95.53,62A1.527,1.527,0,0,0,94,63.508v1.035a3.176,3.176,0,0,1,.9.653V63.508a.624.624,0,0,1,.63-.607H96.7A2.879,2.879,0,0,1,95.53,62Z" transform="translate(-72.85 -48.05)"/>
      <path id="Path_1121" data-name="Path 1121" class="cls-2" d="M71.463,94A1.6,1.6,0,0,0,70,95.6v5.6a.45.45,0,0,0,.9,0V95.6a.7.7,0,0,1,.7-.7h.833A3.349,3.349,0,0,1,71.463,94Z" transform="translate(-54.25 -72.85)"/>
      <path id="Path_1122" data-name="Path 1122" class="cls-2" d="M96.167,94a3.086,3.086,0,0,1-.967.9h.833a.7.7,0,0,1,.7.7v5.6a.45.45,0,0,0,.9,0V95.6A1.612,1.612,0,0,0,96.167,94Z" transform="translate(-73.78 -72.85)"/>
      <path id="Path_1123" data-name="Path 1123" class="cls-2" d="M80.25,76a2.25,2.25,0,1,0,2.25,2.25A2.257,2.257,0,0,0,80.25,76Zm0,3.6a1.35,1.35,0,1,1,1.35-1.35A1.354,1.354,0,0,1,80.25,79.6Z" transform="translate(-60.45 -58.9)"/>
      <path id="Path_1124" data-name="Path 1124" class="cls-2" d="M23.8,63.507v1.688a3.683,3.683,0,0,1,.9-.653V63.507A1.527,1.527,0,0,0,23.17,62a3.037,3.037,0,0,1-1.17.9h1.17A.624.624,0,0,1,23.8,63.507Z" transform="translate(-17.05 -48.05)"/>
      <path id="Path_1125" data-name="Path 1125" class="cls-2" d="M46,59.915a3.176,3.176,0,0,1,.9.652V57.575a.682.682,0,0,1,.7-.675h.833a3.35,3.35,0,0,1-.967-.9A1.574,1.574,0,0,0,46,57.575Z" transform="translate(-35.65 -43.4)"/>
      <path id="Path_1126" data-name="Path 1126" class="cls-2" d="M32.25,76a2.25,2.25,0,1,0,2.25,2.25A2.257,2.257,0,0,0,32.25,76Zm0,3.6a1.35,1.35,0,1,1,1.35-1.35A1.354,1.354,0,0,1,32.25,79.6Z" transform="translate(-23.25 -58.9)"/>
      <path id="Path_1127" data-name="Path 1127" class="cls-2" d="M.9,25.55v-.225a2.323,2.323,0,0,1,.09-.675.1.1,0,0,1-.09-.09V18.507a.624.624,0,0,1,.63-.607H2.7A2.738,2.738,0,0,1,1.53,17,1.527,1.527,0,0,0,0,18.507V24.56A1,1,0,0,0,.9,25.55Z" transform="translate(0 -13.175)"/>
      <path id="Path_1128" data-name="Path 1128" class="cls-2" d="M94.9,25.01h0a3.193,3.193,0,0,1,.27-.9H94.9v-5.6a.624.624,0,0,1,.63-.607H96.7a2.738,2.738,0,0,1-1.17-.9A1.527,1.527,0,0,0,94,18.507v5.6A.9.9,0,0,0,94.9,25.01Z" transform="translate(-72.85 -13.175)"/>
      <path id="Path_1129" data-name="Path 1129" class="cls-2" d="M38.822,34.845v-8.64A1.287,1.287,0,0,1,40.1,24.9h1.867a3.971,3.971,0,0,1-1.125-.9h-.765A2.189,2.189,0,0,0,37.9,26.205v8.64A2.126,2.126,0,0,1,38.822,34.845Z" transform="translate(-29.372 -18.6)"/>
      <path id="Path_1130" data-name="Path 1130" class="cls-2" d="M23.463,94A1.6,1.6,0,0,0,22,95.6v5.6a.45.45,0,0,0,.9,0V95.6a.7.7,0,0,1,.7-.7h.832A3.35,3.35,0,0,1,23.463,94Z" transform="translate(-17.05 -72.85)"/>
      <path id="Path_1131" data-name="Path 1131" class="cls-2" d="M48.168,94a3.086,3.086,0,0,1-.967.9h.833a.7.7,0,0,1,.7.7v5.6a.45.45,0,0,0,.9,0V95.6A1.612,1.612,0,0,0,48.168,94Z" transform="translate(-36.58 -72.85)"/>
      <path id="Path_1132" data-name="Path 1132" class="cls-2" d="M4.05,72.193a.38.38,0,0,0-.225-.068.451.451,0,0,0-.45.45V75.95H2.543c-.023,0-.068-.045-.068-.113V67.85a.45.45,0,0,0-.9,0v1.8H.99a.1.1,0,0,1-.09-.09V63.508a.624.624,0,0,1,.63-.607H2.7A2.738,2.738,0,0,1,1.53,62,1.527,1.527,0,0,0,0,63.508V69.56a1,1,0,0,0,.99.99h.585v5.287a1.014,1.014,0,0,0,.967,1.013h1.6a1.451,1.451,0,0,1-.068-.45V72.193Z" transform="translate(0 -48.05)"/>
      <path id="Path_1133" data-name="Path 1133" class="cls-2" d="M72,24.9h1.868a1.287,1.287,0,0,1,1.283,1.305v8.64a3.017,3.017,0,0,1,.9,0v-8.64A2.2,2.2,0,0,0,73.868,24H73.1A3.59,3.59,0,0,1,72,24.9Z" transform="translate(-55.8 -18.6)"/>
      <path id="Path_1134" data-name="Path 1134" class="cls-2" d="M73.63,59.915v-2.34A1.591,1.591,0,0,0,72.168,56a3.086,3.086,0,0,1-.968.9h.832a.682.682,0,0,1,.7.675v2.97A3.1,3.1,0,0,1,73.63,59.915Z" transform="translate(-55.18 -43.4)"/>
    </g>
  </g>
</svg>
