<svg xmlns="http://www.w3.org/2000/svg" width="2517" height="280" viewBox="0 0 2517 280">
    <defs>
        <style>
            .prefix__cls-2{fill:#fff}
        </style>
    </defs>
    <g id="prefix__Group_597" data-name="Group 597" transform="translate(387 -404.999)">
        <g id="prefix__Unplug" opacity="0.903" transform="translate(-83.003 -28.287)">
            <g id="prefix__Group_476" data-name="Group 476" transform="translate(0 14.419)">
                <path id="prefix__Rectangle_95" d="M0 0H18.593V104.054H0z" class="prefix__cls-2" data-name="Rectangle 95" transform="rotate(-89.71 587.33 -65.745)"/>
                <path id="prefix__Rectangle_96" d="M0 0H18.593V104.054H0z" class="prefix__cls-2" data-name="Rectangle 96" transform="rotate(90.29 84.232 666.358)"/>
                <path id="prefix__Rectangle_97" d="M0 0H28.049V176.226H0z" class="prefix__cls-2" data-name="Rectangle 97" transform="translate(664.85 464.723)"/>
                <g id="prefix__Group_472" data-name="Group 472" transform="translate(-303.997 458.867)">
                    <path id="prefix__Path_1285" d="M866.955 227.584c-1.413-.6-3.9-1.557-7.211-2.609a111.053 111.053 0 0 0-30.305-5.105c-20.627-.527-50.741 4.983-76.83 34.33-6.78 7.618-13.128 15.045-19.261 22.256-10.757 12.577-20.459 23.957-29.73 33.18-.839.862-1.677 1.679-2.492 2.468q-3.917 3.773-7.714 6.947c-.934.767-1.845 1.509-2.731 2.2-18.878 14.781-36.894 18.064-59.245.934-6.373-4.911-12.817-12.505-19.357-21.8-.91-1.27-1.8-2.537-2.683-3.833v-.024c-2.492-3.713-5.007-7.642-7.522-11.739a.022.022 0 0 0-.024-.022c-5.606-9.058-11.284-18.9-17.105-28.99-1.7-2.947-3.426-5.965-5.175-8.96-.527-.91-1.054-1.821-1.605-2.755a.3.3 0 0 1-.072-.1v-.022c-.431-.769-.886-1.536-1.318-2.326-.12-.168-.24-.381-.359-.573q-3.162-5.466-6.444-10.9c-1.03-1.653-2.036-3.33-3.018-4.959v-.024c-.359-.575-.695-1.126-1.054-1.7-.1-.168-.192-.285-.264-.431q-3.7-6-7.5-11.859c-.743-1.15-1.509-2.3-2.276-3.45-1.174-1.773-2.372-3.546-3.594-5.294-1.222-1.8-2.468-3.546-3.737-5.318a4.856 4.856 0 0 0-.431-.6c-3.114-4.336-6.325-8.574-9.607-12.625-.623-.767-1.27-1.581-1.893-2.348v-.024c-2.468-2.923-4.911-5.678-7.427-8.385-14.494-15.572-30.617-27.359-48.992-32.054-.862-.216-1.773-.407-2.659-.6-1.174-.264-2.348-.5-3.546-.695a72.474 72.474 0 0 0-12.218-.91c-23.023.287-46.979 11.691-72.781 34.57-.144.122-14.949 12.412-33.468 19.695-23.933 9.413-42.571 6.394-55.388-8.914-13.608-16.291-33.348-27.428-58.934-33.252h-.072q-7.582-1.761-15.931-2.875-.5-.072-1.078-.144c-6.732-.862-13.823-1.435-21.226-1.677-38.738-1.318-85.885 5.893-140.6 21.441-.671.192-1.342.383-2.06.575q-7.546 2.192-15.308 4.552a1.3 1.3 0 0 1-.192.072q-10.6 3.27-21.513 6.9c-8.217 2.733-15.859 4.938-23 6.638v6.993q11.679-2.7 25.131-7.163c7.139-2.4 14.206-4.648 21.13-6.78.359-.12.695-.237 1.03-.335h.024c1.006-.309 2.036-.623 3.019-.908 1.8-.553 3.617-1.08 5.39-1.631a3.433 3.433 0 0 1 .383-.1h.024c.6-.192 1.174-.359 1.749-.527 1.15-.333 2.3-.671 3.426-1.006 1.15-.311 2.3-.647 3.426-.982 53.663-15.189 99.852-22.256 137.7-20.962 6.8.24 13.3.719 19.5 1.485 1.054.12 2.06.266 3.09.407.91.12 1.845.264 2.731.407 1.318.192 2.635.407 3.9.649 2.707.477 5.366 1 7.93 1.6.455.1.934.216 1.389.335 23.358 5.582 41.35 15.835 53.735 30.617 14.71 17.608 36.582 21.348 63.2 10.829a143.571 143.571 0 0 0 35.312-20.819c24.676-21.87 47.243-32.747 68.708-32.917h1.054c1.366.024 2.731.074 4.1.192.024-.022.024-.022.048 0 1.557.1 3.066.264 4.6.5a1.741 1.741 0 0 1 .359.074h.024a4.277 4.277 0 0 1 .551.045c.407.072.815.146 1.174.216 1.893.338 3.713.767 5.534 1.27.575.144 1.1.311 1.677.479 16.7 5.031 31.551 16.6 45.159 31.7q5.1 5.714 9.966 12c1.557 2.01 3.114 4.022 4.648 6.131a.023.023 0 0 1 .024.024c.216.287.383.575.623.862 3.426 4.719 6.8 9.631 10.086 14.686v.024c.647.91 1.246 1.845 1.845 2.779.359.553.695 1.078 1.03 1.629v.026q4.168 6.465 8.193 13.126c1.413 2.324 2.779 4.648 4.193 7v.024c.695 1.15 1.366 2.276 2.036 3.45.168.287.335.575.5.865.287.453.527.908.815 1.363.192.359.407.743.623 1.078a.636.636 0 0 1 .1.168.5.5 0 0 1 .1.144c2.659 4.576 5.294 9.152 7.906 13.655 9.583 16.674 18.447 32.054 27.215 44.56 1.294 1.869 2.587 3.641 3.857 5.366a.023.023 0 0 1 .024.024c1.869 2.492 3.713 4.815 5.63 7.019l.024.024a77.453 77.453 0 0 0 11.667 11.4c11.835 9.1 22.687 13.009 32.989 13.009 12.314 0 23.837-5.606 35.336-14.757.024-.024.048-.048.072-.048 3.689-2.947 7.379-6.25 11.116-9.87l.048-.048c.024 0 .048-.024.072-.048.6-.6 1.222-1.2 1.821-1.821 9.607-9.532 19.357-20.962 29.73-33.108 6.109-7.187 12.458-14.59 19.19-22.136 19.5-21.945 43.506-32.725 71.3-32.052a104.958 104.958 0 0 1 30.473 5.364 62.353 62.353 0 0 1 6.037 2.326l1.294-2.757v-.046l.12-.266 1.461-3.066c-.104-.034-.585-.274-1.421-.633z" class="prefix__cls-2" data-name="Path 1285" transform="translate(-.003 -138.867)"/>
                </g>
                <path id="prefix__Path_1287" d="M415.683 306.344l55.405 2.223 6.555-163.307-55.405-2.221a56.516 56.516 0 0 0-58.74 54.207l-2.022 50.354a56.52 56.52 0 0 0 54.207 58.744z" class="prefix__cls-2" data-name="Path 1287" transform="rotate(-2 9823.09 -5336.977)"/>
                <path id="prefix__Rectangle_98" d="M0 0H14.619V42.124H0z" class="prefix__cls-2" data-name="Rectangle 98" transform="translate(555.616 527.119)"/>
            </g>
            <g id="prefix__Group_477" data-name="Group 477" transform="translate(0 -.459)">
                <g id="prefix__Group_473" data-name="Group 473" transform="translate(1425.506 476.386)">
                    <path id="prefix__Path_1286" d="M1286.523 147.681v7.893c-140.869-19.1-167.847 15.275-220.682 82.7-16.874 21.533-36.04 45.958-61.559 73.3-47.627 50.986-117.962 63.85-176.76 63.85a461.637 461.637 0 0 1-84.24-8.072c-78.042-14.796-145.382-47.372-156.605-75.73-24.4-61.741-82.521-41.378-84.969-40.492l-2.682-7.341c.677-.237 67.678-23.934 94.916 44.943 8.9 22.5 67.756 55.179 150.8 70.936 52.1 9.867 181.135 24.423 253.813-53.411 25.311-27.108 44.346-51.4 61.142-72.808 54.527-69.579 82.441-105.176 226.826-85.768z" class="prefix__cls-2" data-name="Path 1286" transform="translate(-499.026 -161.063)"/>
                </g>
                <path id="prefix__Path_1288" d="M521.745 149.967l-55.405-2.226-6.555 163.3 55.405 2.226a56.52 56.52 0 0 0 58.742-54.207l2.019-50.357a56.514 56.514 0 0 0-54.206-58.736z" class="prefix__cls-2" data-name="Path 1288" transform="rotate(-2 10392.94 -24574.879)"/>
                <path id="prefix__Rectangle_99" d="M0 0H14.619V42.124H0z" class="prefix__cls-2" data-name="Rectangle 99" transform="translate(1439.346 539.286)"/>
            </g>
        </g>
        <g id="prefix__Header" transform="translate(399.206 297.416)">
            <text id="prefix__عذراً_الصفحة_التي_تبحث_عنها_غير_موجودة_بالموقع_الرجاء_التأكد_من_عنوان_الصفحة" fill="#373737" data-name="عذراً الصفحة التي تبحث عنها غير موجودة بالموقع الرجاء التأكد من عنوان الصفحة" font-family="GESSTwoBold-Bold, GE SS Two" font-size="25px" font-weight="700" letter-spacing="0.03em" transform="translate(274.794 328.583)">
                <tspan x="36.55" y="21"></tspan><tspan y="21">عذراً الصفحة التي تبحث عنها غير موجودة</tspan><tspan x="50.813" y="52">بالموقع الرجاء التأكد من عنوان الصفحة</tspan>
            </text>
            <g id="prefix___404" data-name="404" font-family="Montserrat-Black, Montserrat" font-size="189px" font-weight="800">
                <text id="prefix___404-2" data-name="404" opacity="0.078" transform="translate(559 290.583)">
                    <tspan x="-199.962" y="0">404</tspan>
                </text>
                <text id="prefix___404-3" fill="#28a4a2" data-name="404" transform="translate(549 291.582)">
                    <tspan x="-199.962" y="0">404</tspan>
                </text>
            </g>
        </g>
    </g>
</svg>
