<svg xmlns="http://www.w3.org/2000/svg" width="11.931" height="24" viewBox="0 0 11.931 24">
    <g id="prefix__ic_facebook" transform="translate(-2076 -7536)">
        <g id="prefix__facebook" transform="translate(1885.597 7412)">
            <path id="prefix__Path_127" d="M193.357 148h4.681a.727.727 0 0 0 .727-.727v-10.537h2.435a.727.727 0 0 0 .723-.653l.41-3.979a.727.727 0 0 0-.723-.8h-2.842v-1.614c0-.333.105-.358.266-.358h2.517a.727.727 0 0 0 .727-.727v-3.864a.727.727 0 0 0-.724-.727L198.08 124a5.12 5.12 0 0 0-4.39 1.968 5.987 5.987 0 0 0-1.06 3.486v1.846h-1.5a.727.727 0 0 0-.727.727v3.979a.727.727 0 0 0 .727.727h1.5v10.537a.727.727 0 0 0 .727.73zm-1.5-12.719v-2.525h1.5a.727.727 0 0 0 .727-.727v-2.576a4.614 4.614 0 0 1 .777-2.624 3.743 3.743 0 0 1 3.216-1.375l2.743.011v2.412h-1.789a1.673 1.673 0 0 0-1.721 1.812v2.339a.727.727 0 0 0 .727.727h2.763l-.26 2.525h-2.5a.727.727 0 0 0-.727.727v10.537h-3.226v-10.536a.727.727 0 0 0-.727-.727z" data-name="Path 127" style="fill:#fff"/>
        </g>
    </g>
</svg>
