<svg xmlns="http://www.w3.org/2000/svg" width="24" height="24" viewBox="0 0 24 24">
    <defs>
        <style>
            .prefix__cls-1{fill:#fff}
        </style>
    </defs>
    <g id="prefix__ic_instagram" transform="translate(-413.125 -144.125)">
        <g id="prefix__instagram" transform="translate(311 42)">
            <g id="prefix__Group_120" data-name="Group 120" transform="translate(102.125 102.125)">
                <path id="prefix__Path_134" d="M120.376 102.125h-12.5a5.756 5.756 0 0 0-5.749 5.749v12.5a5.755 5.755 0 0 0 5.749 5.749h12.5a5.755 5.755 0 0 0 5.749-5.749v-12.5a5.755 5.755 0 0 0-5.749-5.749zm4.235 18.251a4.24 4.24 0 0 1-4.235 4.235h-12.5a4.24 4.24 0 0 1-4.235-4.235v-12.5a4.24 4.24 0 0 1 4.235-4.235h12.5a4.24 4.24 0 0 1 4.235 4.235z" class="prefix__cls-1" data-name="Path 134" transform="translate(-102.125 -102.125)"/>
                <path id="prefix__Path_135" d="M255.521 139.728a.922.922 0 1 0 .922.922.923.923 0 0 0-.922-.922z" class="prefix__cls-1" data-name="Path 135" transform="translate(-236.813 -135.342)"/>
                <path id="prefix__Path_136" d="M160.452 154.57a5.883 5.883 0 1 0 5.883 5.882 5.889 5.889 0 0 0-5.883-5.882zm0 10.251a4.369 4.369 0 1 1 4.368-4.369 4.374 4.374 0 0 1-4.368 4.369z" class="prefix__cls-1" data-name="Path 136" transform="translate(-148.452 -148.452)"/>
            </g>
        </g>
    </g>
</svg>
