<svg xmlns="http://www.w3.org/2000/svg" width="24" height="23.008" viewBox="0 0 24 23.008">
    <defs>
        <style>
            .prefix__cls-1{fill:#fff}
        </style>
    </defs>
    <g id="prefix__ic_linkedin" transform="translate(-461 -144)">
        <g id="prefix__linkedin" transform="translate(325 8)">
            <path id="prefix__Path_140" d="M226.583 220.791h4.817a.777.777 0 0 0 .777-.777v-8.3a7.775 7.775 0 0 0-1.79-5.451 5.967 5.967 0 0 0-4.528-1.839 5.573 5.573 0 0 0-3.56 1.129v-.013a.777.777 0 0 0-.777-.777h-4.811a.777.777 0 0 0-.776.812c.06 1.322 0 14.3 0 14.435a.776.776 0 0 0 .777.78h4.811a.777.777 0 0 0 .777-.777v-8.084a2.607 2.607 0 0 1 .1-.882 1.9 1.9 0 0 1 1.749-1.276c.455 0 1.662 0 1.662 2.5v7.744a.776.776 0 0 0 .772.776zm-2.438-12.572a3.387 3.387 0 0 0-3.187 2.243 3.826 3.826 0 0 0-.217 1.469v7.307h-3.254c.011-2.51.041-10.236.012-12.921h3.242v1.273a.777.777 0 0 0 1.428.422 3.99 3.99 0 0 1 3.685-2.035c3.028 0 4.765 2.091 4.765 5.737v7.523h-3.259v-6.968a4.941 4.941 0 0 0-.7-2.8 2.892 2.892 0 0 0-2.515-1.249z" class="prefix__cls-1" data-name="Path 140" transform="translate(-72.172 -61.783)"/>
            <path id="prefix__Path_141" d="M142.964 139.262a3.488 3.488 0 1 0-3.53 3.294h.032a3.282 3.282 0 0 0 3.5-3.278c-.002-.005-.002-.011-.002-.016zm-3.5 1.741h-.032a1.711 1.711 0 0 1-1.881-1.725 1.745 1.745 0 0 1 1.944-1.725 1.723 1.723 0 0 1 1.914 1.733 1.746 1.746 0 0 1-1.943 1.714z" class="prefix__cls-1" data-name="Path 141"/>
            <path id="prefix__Path_142" d="M139.7 207.922a.777.777 0 0 0-.777.777v14.474a.777.777 0 0 0 .777.777h4.813a.777.777 0 0 0 .777-.777V208.7a.777.777 0 0 0-.777-.777zm4.037 14.474h-3.26v-12.921h3.26z" class="prefix__cls-1" data-name="Path 142" transform="translate(-2.636 -64.941)"/>
        </g>
    </g>
</svg>
