<svg xmlns="http://www.w3.org/2000/svg" id="prefix__ic_language" width="32" height="32" viewBox="0 0 32 32">
    <g id="prefix__Group_211" data-name="Group 211">
        <path id="prefix__Path_208" d="M16 0a16 16 0 1 0 16 16A16.019 16.019 0 0 0 16 0zm11.328 7.806a30.1 30.1 0 0 1-5.314 1.582 22.621 22.621 0 0 0-3.682-7.178 14.009 14.009 0 0 1 8.996 5.596zm-6.8 12.554a33.345 33.345 0 0 0-9.058 0 20.771 20.771 0 0 1 0-8.706A33.4 33.4 0 0 0 16 12a33.368 33.368 0 0 0 4.532-.346 20.771 20.771 0 0 1-.004 8.706zM20.01 9.7a31.308 31.308 0 0 1-8.022 0A20.626 20.626 0 0 1 16 2.528 20.621 20.621 0 0 1 20.01 9.7zm-6.346-7.49a22.615 22.615 0 0 0-3.68 7.178 30.127 30.127 0 0 1-5.312-1.582 14 14 0 0 1 8.992-5.596zM2 16a13.912 13.912 0 0 1 1.594-6.464 32.185 32.185 0 0 0 5.892 1.81 22.775 22.775 0 0 0 0 9.324 31.972 31.972 0 0 0-5.894 1.8A13.943 13.943 0 0 1 2 16zm2.672 8.194a30.127 30.127 0 0 1 5.312-1.582 22.621 22.621 0 0 0 3.682 7.178 14 14 0 0 1-8.994-5.596zM11.99 22.3a31.292 31.292 0 0 1 8.02 0A20.653 20.653 0 0 1 16 29.472a20.621 20.621 0 0 1-4.01-7.172zm6.342 7.488a22.621 22.621 0 0 0 3.682-7.178 30.318 30.318 0 0 1 5.314 1.582 14.009 14.009 0 0 1-8.996 5.598zm4.178-9.124a22.731 22.731 0 0 0 0-9.322 32.051 32.051 0 0 0 5.894-1.81 13.912 13.912 0 0 1 0 12.932 32.254 32.254 0 0 0-5.894-1.798z" data-name="Path 208" style="fill:#fff"/>
    </g>
</svg>
