<svg xmlns="http://www.w3.org/2000/svg" width="24" height="19.775" viewBox="0 0 24 19.775">
    <g id="prefix__ic_twitter" transform="translate(-365 -145.47)">
        <g id="prefix__twitter" transform="translate(229 -13)">
            <path id="prefix__Path_146" d="M159.878 161.769a.727.727 0 0 0-.9-1.069l-.056.024a5.331 5.331 0 0 0 .421-.971.727.727 0 0 0-1.064-.847 8.488 8.488 0 0 1-2.339.954 5.356 5.356 0 0 0-8.958 3.959q0 .127.006.252a12.444 12.444 0 0 1-8.129-4.489.727.727 0 0 0-1.192.093 5.368 5.368 0 0 0-.083 5.237.727.727 0 0 0-.679.726v.058a5.366 5.366 0 0 0 1.874 4.065.727.727 0 0 0-.218.772 5.346 5.346 0 0 0 3.115 3.338 8.52 8.52 0 0 1-3.847.9 8.846 8.846 0 0 1-1.019-.058.727.727 0 0 0-.477 1.335 13.834 13.834 0 0 0 7.483 2.193 13.318 13.318 0 0 0 10.317-4.535 14.351 14.351 0 0 0 3.572-9.354v-.243a10.042 10.042 0 0 0 2.173-2.34zm-3.339 1.4a.727.727 0 0 0-.3.626c.009.179.013.363.013.562a12.878 12.878 0 0 1-3.208 8.392 11.9 11.9 0 0 1-9.225 4.042 12.392 12.392 0 0 1-4.172-.722 9.915 9.915 0 0 0 4.378-1.972.727.727 0 0 0-.435-1.3 3.9 3.9 0 0 1-3.139-1.685 5.41 5.41 0 0 0 1.083-.177.727.727 0 0 0-.046-1.415 3.912 3.912 0 0 1-2.974-2.75 5.378 5.378 0 0 0 1.193.176.727.727 0 0 0 .428-1.332 3.908 3.908 0 0 1-1.61-4.223 13.891 13.891 0 0 0 9.272 4.21.727.727 0 0 0 .744-.892 3.9 3.9 0 0 1 6.645-3.555.727.727 0 0 0 .669.215q.413-.081.817-.2a3.928 3.928 0 0 1-.427.3.727.727 0 0 0 .458 1.346q.178-.021.354-.048-.251.211-.518.403z" data-name="Path 146" style="fill:#fff"/>
        </g>
    </g>
</svg>
