<svg xmlns="http://www.w3.org/2000/svg" width="24" height="18.349" viewBox="0 0 24 18.349">
    <defs>
        <style>
            .prefix__cls-1{fill:#fff}
        </style>
    </defs>
    <g id="prefix__ic_youtube" transform="translate(-509.055 -146.609)">
        <g id="prefix__youtube" transform="translate(392 -3)">
            <path id="prefix__Path_150" d="M140.823 153.869a5.923 5.923 0 0 0-1.072-2.769 3.691 3.691 0 0 0-2.566-1.227l-.125-.013h-.031c-3.156-.245-7.921-.248-7.969-.248h-.011c-.048 0-4.813 0-7.968.248h-.031l-.125.013a3.691 3.691 0 0 0-2.566 1.227 5.929 5.929 0 0 0-1.072 2.769v.011a39.155 39.155 0 0 0-.231 3.985v1.83a39.143 39.143 0 0 0 .231 3.985v.011a5.912 5.912 0 0 0 1.072 2.767 3.939 3.939 0 0 0 2.608 1.2c.106.014.2.025.26.038l.064.01c1.821.186 7.515.244 7.764.246.048 0 4.817-.011 7.972-.253h.035l.129-.014a3.7 3.7 0 0 0 2.558-1.227 5.919 5.919 0 0 0 1.072-2.767v-.012a39.186 39.186 0 0 0 .231-3.985v-1.831a39.166 39.166 0 0 0-.231-3.985zm-1.142 5.827c0 1.838-.208 3.7-.221 3.822a4.68 4.68 0 0 1-.721 2.013l-.008.008a2.35 2.35 0 0 1-1.681.782l-.143.016c-3.1.237-7.806.248-7.845.248-.058 0-5.809-.058-7.6-.236-.1-.018-.206-.032-.318-.046a2.611 2.611 0 0 1-1.764-.764l-.008-.008a4.569 4.569 0 0 1-.721-2.013c-.014-.12-.221-1.984-.221-3.821v-1.83c0-1.838.208-3.705.221-3.821a4.691 4.691 0 0 1 .721-2.015l.007-.008a2.343 2.343 0 0 1 1.685-.781l.138-.015c3.1-.239 7.8-.242 7.848-.242h.011c.047 0 4.745 0 7.848.242l.138.015a2.341 2.341 0 0 1 1.684.78l.007.008a4.579 4.579 0 0 1 .721 2.015c.014.12.221 1.985.221 3.821z" class="prefix__cls-1" data-name="Path 150"/>
            <path id="prefix__Path_151" d="M224 203.366l-7.073-4.244a.687.687 0 0 0-1.041.589v8.489a.687.687 0 0 0 1.041.589l7.073-4.245a.687.687 0 0 0 0-1.178zm-6.739 3.619v-6.061l5.05 3.03z" class="prefix__cls-1" data-name="Path 151" transform="translate(-90.34 -45.172)"/>
        </g>
    </g>
</svg>
