<svg xmlns="http://www.w3.org/2000/svg" width="54.952" height="88" viewBox="0 0 54.952 88">
    <defs>
        <style>
            .prefix__cls-1{fill:#fff}
        </style>
    </defs>
    <g id="prefix__ic_elders" transform="translate(-12.642 -1)">
        <g id="prefix__Group_7" data-name="Group 7" transform="translate(12.642 1)">
            <path id="prefix__Path_16" d="M40.381 22.008a10.5 10.5 0 1 0-10.5-10.5 10.516 10.516 0 0 0 10.5 10.5zm0-18.169a7.665 7.665 0 1 1-7.665 7.661 7.673 7.673 0 0 1 7.665-7.661z" class="prefix__cls-1" data-name="Path 16" transform="translate(-5.414 -1)"/>
            <path id="prefix__Path_17" d="M13.467 73.382a6.6 6.6 0 0 0 11.571 6.368l4.39-7.967a20.387 20.387 0 0 0 1.855-10.191v-2.008c2.044 3.382 1.873 5.224 5.578 18.871a6.282 6.282 0 0 0 12.185-3.066c-3.839-14.049-3.964-16.349-6.087-21.113l-3.371-7.43 1.361-5.158 10.913 4.58a5.639 5.639 0 0 0 7.024-8.141 4.715 4.715 0 0 1 5.87 4.576v39.033a1.419 1.419 0 0 0 2.839 0V42.7a7.557 7.557 0 0 0-11.027-6.726 5.575 5.575 0 0 0-.511-.243l-11.5-4.323 1.859-5.795a7.064 7.064 0 0 0-4.535-9.113L38.4 15.415a10.891 10.891 0 0 0-13.519 6.758l-5.86 16.352a6.948 6.948 0 0 0-.312 1.34c-.216.5-.022-.632-1.089 18.936-.16 4.343.464 6.146-.819 8.508zM56.7 42.078a2.879 2.879 0 0 1-3.742 1.573l-12.791-5.37a2.68 2.68 0 0 1-1.448-1.475l-3.2-8.055a2.384 2.384 0 0 1 2.207-3.265h.141a2.39 2.39 0 0 1 2.153 1.7l1.649 5.561a1.421 1.421 0 0 0 .858.924l12.521 4.709a2.858 2.858 0 0 1 1.652 3.698zm-35-2.602l5.86-16.348a8.062 8.062 0 0 1 10-5l3.481 1.09a4.224 4.224 0 0 1 2.687 5.493l-.77 2.4-.213-.72a5.223 5.223 0 1 0-9.863 3.409l3.2 8.054a5.519 5.519 0 0 0 2.245 2.646l-1.613 6.113a1.416 1.416 0 0 0 .08.949l3.576 7.878c1.987 4.46 2.157 6.829 5.918 20.618a4.059 4.059 0 0 1 .112.843 3.453 3.453 0 0 1-6.792.839c-3.655-12.89-3.34-16.327-6.933-21.171a132.43 132.43 0 0 0-9.338-11.684c-.787-.795-2.521-2.915-1.637-5.409zM19.3 68.67c1.753-3.228.972-5.768 1.164-9.795l.636-12.243a113.923 113.923 0 0 1 7.4 9.107 1.36 1.36 0 0 0-.061.3l.007 5.666A17.657 17.657 0 0 1 26.9 70.5l-4.345 7.881a3.766 3.766 0 0 1-6.6-3.63z" class="prefix__cls-1" data-name="Path 17" transform="translate(-12.642 4.836)"/>
            <path id="prefix__Path_18" d="M19.454 16.748a1.419 1.419 0 0 0 2.494 1.352 5.875 5.875 0 0 1 2.575-2.458 1.419 1.419 0 1 0-1.239-2.553 8.726 8.726 0 0 0-3.83 3.659z" class="prefix__cls-1" data-name="Path 18" transform="translate(-9.858 4.01)"/>
            <path id="prefix__Path_19" d="M22.338 9.707a14.113 14.113 0 0 0-6.189 5.909 1.419 1.419 0 0 0 2.494 1.356 11.263 11.263 0 0 1 4.935-4.711 1.419 1.419 0 0 0-1.239-2.553z" class="prefix__cls-1" data-name="Path 19" transform="translate(-11.244 2.591)"/>
        </g>
    </g>
</svg>
