<svg xmlns="http://www.w3.org/2000/svg" width="64.708" height="96" viewBox="0 0 64.708 96">
    <g id="prefix__ic_employee" transform="translate(-83.447)">
        <g id="prefix__Group_12" data-name="Group 12" transform="translate(83.447)">
            <path id="prefix__Path_36" d="M146.748 77.783a1.406 1.406 0 0 0-1.406 1.406v13.222a.777.777 0 0 1-.776.776h-7.559V65.494a1.406 1.406 0 0 0-2.812 0v27.693h-15.223l4.414-4.856a2.521 2.521 0 0 0 .608-2.023c0-.014 0-.029-.007-.043l-4.2-24.838 1.133-1.705a3.189 3.189 0 0 0 2.013.873 2.463 2.463 0 0 0 2.2-1.363l4.434-8.888 10.1 3.912a9.744 9.744 0 0 1 5.672 8.857v9.512a1.406 1.406 0 0 0 2.813 0v-9.51a12.55 12.55 0 0 0-7.422-11.462l-.027-.011-16.813-6.511v-3.943a13.176 13.176 0 0 0 4.987-8.668 6.087 6.087 0 0 0 3.576-1.459 5.97 5.97 0 0 0 .623-8.424v-5.208a17.429 17.429 0 1 0-34.857 0v5.346a5.646 5.646 0 0 0-1.45 3.764 5.959 5.959 0 0 0 2.074 4.524 6.084 6.084 0 0 0 3.574 1.458 13.037 13.037 0 0 0 5.273 8.879v3.735L90.9 51.642l-.026.011a12.55 12.55 0 0 0-7.422 11.462v29.3A3.593 3.593 0 0 0 87.036 96h13.4a1.406 1.406 0 1 0 0-2.812h-3.027V65.494a1.406 1.406 0 0 0-2.812 0v27.693h-7.56a.777.777 0 0 1-.776-.776v-29.3a9.744 9.744 0 0 1 5.671-8.856l10.094-3.913 4.435 8.888a2.462 2.462 0 0 0 2.2 1.363 3.187 3.187 0 0 0 2.013-.873l1.133 1.705-4.2 24.838c0 .014 0 .028-.007.042a2.521 2.521 0 0 0 .608 2.023l4.414 4.856H107A1.406 1.406 0 1 0 107 96h37.568a3.593 3.593 0 0 0 3.589-3.589V79.19a1.407 1.407 0 0 0-1.409-1.407zm-19.814-28.458l-4.134 8.286-4.972-3.531 5.107-6.3zm-8.312 8.768l-1.072 1.614h-3.507l-1.072-1.614 2.826-2.007zM110.5 45.585v-2.632a14.268 14.268 0 0 0 5.318 1.008 13.2 13.2 0 0 0 5.26-1.1V45.6l-5.278 6.519zm21.213-19.047a3.151 3.151 0 0 1-1.095 2.391 3.275 3.275 0 0 1-1.624.748V23.4a3.181 3.181 0 0 1 2.722 3.139zM102.3 29.677a3.177 3.177 0 0 1-2.719-3.139 3.34 3.34 0 0 1 2.719-3.067zm.076-9.072a6.952 6.952 0 0 0-1.344.3v-3.48a14.616 14.616 0 1 1 29.232 0v3.383a6.252 6.252 0 0 0-1.264-.241c0-1.357.012-1.1-4.427-5.868a2.5 2.5 0 0 0-3.194-.389 27.112 27.112 0 0 1-16.39 4.412 2.5 2.5 0 0 0-2.611 1.884zm2.737 10.179v-9.235a30.051 30.051 0 0 0 17.576-4.741c2.036 2.186 3.138 3.332 3.494 3.769v10.207a10.536 10.536 0 0 1-21.07 0zm3.678 26.827l-4.134-8.286 3.992-1.546 5.108 6.3zm1.613 28.958l4.07-24.049h2.638l4.07 24.049L115.8 92.5z" data-name="Path 36" transform="translate(-83.447)" style="fill:#fff"/>
        </g>
    </g>
</svg>
