<svg xmlns="http://www.w3.org/2000/svg" width="106.486" height="88" viewBox="0 0 106.486 88">
    <defs>
        <style>
            .prefix__cls-1{fill:#fff}
        </style>
    </defs>
    <g id="prefix__ic_family" transform="translate(-6.867 -14.009)">
        <g id="prefix__Group_13" data-name="Group 13" transform="translate(6.867 14.009)">
            <path id="prefix__Path_37" d="M89.383 36.078h-2.475a11.719 11.719 0 1 0-10.964 0h-2.476a6.186 6.186 0 0 0-6.178 6.178V69.95a6.217 6.217 0 0 0 4.78 6.008v19.87a6.135 6.135 0 0 0 6.075 6.181H84.7a6.136 6.136 0 0 0 6.075-6.181V75.954a6.216 6.216 0 0 0 4.783-6V42.256a6.188 6.188 0 0 0-6.175-6.178zM72.3 25.729a9.129 9.129 0 1 1 9.13 9.129 9.14 9.14 0 0 1-9.13-9.129zM92.976 69.95a3.61 3.61 0 0 1-3.518 3.578l-1.266.03v22.268a3.543 3.543 0 0 1-3.486 3.592h-6.558a3.543 3.543 0 0 1-3.486-3.592V73.558l-1.267-.027a3.607 3.607 0 0 1-3.514-3.58V42.256a3.594 3.594 0 0 1 3.59-3.59h15.912a3.6 3.6 0 0 1 3.592 3.591V69.95z" class="prefix__cls-1" data-name="Path 37" transform="translate(10.925 -14.009)"/>
            <path id="prefix__Path_38" d="M36.2 41.487a5.445 5.445 0 0 0-5.535-5.411h-1.157a11.717 11.717 0 1 0-10.968 0h-1.276a5.434 5.434 0 0 0-5.4 5.527l1.78 19.621-6.777 28.494h9.015V96.6a5.4 5.4 0 0 0 5.446 5.411h5.522a5.371 5.371 0 0 0 5.32-5.411v-6.882h9.017l-6.774-28.491zM14.9 25.729a9.129 9.129 0 1 1 9.129 9.129 9.14 9.14 0 0 1-9.129-9.129zm23.014 61.4h-8.33V96.6a2.782 2.782 0 0 1-2.731 2.822H21.2a2.782 2.782 0 0 1-2.729-2.822v-9.471h-8.328l6.114-25.717-1.814-19.925a2.853 2.853 0 0 1 2.945-2.822h13.4a2.81 2.81 0 0 1 2.826 2.7L31.8 61.413z" class="prefix__cls-1" data-name="Path 38" transform="translate(-6.867 -14.009)"/>
            <path id="prefix__Path_39" d="M51.956 59.228a3.571 3.571 0 0 0-2.791-3.469 7 7 0 1 0-9.07-.01 3.618 3.618 0 0 0-2.777 3.6l.982 10.775-3.9 16.411h5.151v3.234a3.569 3.569 0 0 0 3.595 3.575H46.2a3.554 3.554 0 0 0 3.525-3.575v-3.234h5.151l-3.9-16.411zm-7.32-13.215a4.414 4.414 0 1 1-4.414 4.414 4.42 4.42 0 0 1 4.414-4.414zM51.6 83.947h-4.463v5.823a.963.963 0 0 1-.936.986h-3.13a.964.964 0 0 1-.937-.986v-5.823H37.67l3.243-13.635L39.9 59.228a1 1 0 0 1 1.054-.986h7.424a.982.982 0 0 1 .993.87l-1.015 11.2z" class="prefix__cls-1" data-name="Path 39" transform="translate(1.239 -5.347)"/>
            <path id="prefix__Path_40" d="M63.958 55.591h-.875a6.933 6.933 0 1 0-6.76 0h-.875a3.856 3.856 0 0 0-3.907 3.8v17.163a3.82 3.82 0 0 0 2.559 3.552v9.679a3.828 3.828 0 0 0 3.854 3.793h3.506a3.827 3.827 0 0 0 3.854-3.793V80.1a3.823 3.823 0 0 0 2.557-3.552V59.382a3.864 3.864 0 0 0-3.913-3.791zm-8.6-6.017A4.344 4.344 0 1 1 59.7 53.92a4.348 4.348 0 0 1-4.342-4.345zm9.921 26.977a1.269 1.269 0 0 1-1.288 1.2l-1.267.026v12.008a1.237 1.237 0 0 1-1.265 1.2h-3.507a1.238 1.238 0 0 1-1.265-1.2V77.779l-1.267-.026a1.268 1.268 0 0 1-1.289-1.2V59.387a1.267 1.267 0 0 1 1.318-1.206h8.51a1.271 1.271 0 0 1 1.322 1.2v17.17z" class="prefix__cls-1" data-name="Path 40" transform="translate(6.288 -5.577)"/>
        </g>
    </g>
</svg>
