<svg xmlns="http://www.w3.org/2000/svg" width="88" height="81.328" viewBox="0 0 88 81.328">
    <g id="prefix__ic_needs" transform="translate(-9.488 -162.612)">
        <g id="prefix__Group_4" data-name="Group 4" transform="translate(9.488 194.965)">
            <g id="prefix__Group_3" data-name="Group 3">
                <path id="prefix__Path_14" d="M92.412 305.321a6.253 6.253 0 0 0-10.959-3.834l-8.528 9.853a6.188 6.188 0 0 0-.868 1.307l-.352.145a5.813 5.813 0 0 0-4.284-4.167c-11.326-3.212-12.8-3.856-15.888-3.586H51.5c-8.351.9-10.265 1.169-14.471 3.59a66.312 66.312 0 0 0-8.774 6.061l-.513-.594a3.538 3.538 0 0 0-4.984-.365l-12.084 10.436a3.418 3.418 0 0 0-.336 4.845l15.926 18.149a3.326 3.326 0 0 0 4.62.384l.032-.027 12.038-10.395a3.532 3.532 0 0 0 .365-4.984l-.471-.546.777-.67a8.907 8.907 0 0 1 8.3-1.424l8.01 2.272a1.727 1.727 0 1 0 .943-3.323l-8.01-2.272a12.332 12.332 0 0 0-11.5 2.132l-.777.67-10.078-11.671a62.838 62.838 0 0 1 8.239-5.682c3.581-2.061 4.784-2.256 13.1-3.147 1.944-.169 3.159.181 9.822 2.1 5.163 1.483 6.229 1.491 6.665 3a3.276 3.276 0 0 1 .074 1.369 2.565 2.565 0 0 1-.421.937 1.458 1.458 0 0 1-1.572.558c-3.269-.45-11.052-1.49-11.13-1.5a1.727 1.727 0 0 0-.458 3.424c.078.01 7.855 1.05 11.117 1.5a5.014 5.014 0 0 0 5.561-3.246c.086-.035 17.394-7.169 17.478-7.211 1.824-.926 3.548-1.138 4.634.606 1.251 2.235-.967 3.9-1.526 4.275l-23.042 13.179-.031.018-.056.035a8.794 8.794 0 0 1-1.21.657 1.727 1.727 0 0 0 1.409 3.154 12.233 12.233 0 0 0 1.644-.89c.068-.039 23.066-13.2 23.132-13.245 6.265-4.078 3.252-11.112-1.53-11.877zM40.7 334.4a.073.073 0 0 1 .019.057c0 .051-11.9 10.307-11.94 10.34l-15.821-18.038 12.058-10.411a.079.079 0 0 1 .111.008zm38.048-24.511l5.313-6.138a2.79 2.79 0 0 1 4.893 1.916z" data-name="Path 14" transform="translate(-9.488 -299.328)" style="fill:#fff"/>
            </g>
        </g>
        <g id="prefix__Group_6" data-name="Group 6" transform="translate(46.184 163.741)">
            <g id="prefix__Group_5" data-name="Group 5">
                <path id="prefix__Path_15" d="M212.959 216.166a4.138 4.138 0 0 0 3.45 1.874 4.042 4.042 0 0 0 3.249-1.909 6.623 6.623 0 0 1 11.863.7 2.478 2.478 0 0 0 4.558-1.947 11.567 11.567 0 0 0-19.77-2.6c-6.782-8.689-20.72-3.753-20.71 7.166.012 11.48 9.952 20.259 19.251 24.648a3.459 3.459 0 0 0 2.955 0c6.686-3.172 13.793-8.8 17.083-15.6a2.478 2.478 0 1 0-4.461-2.159c-2.68 5.538-8.616 10.2-14.107 12.965-7.734-3.825-15.755-10.942-15.764-19.859-.006-6.724 9.018-9.234 12.403-3.279z" data-name="Path 15" transform="translate(-195.599 -207.822)" style="stroke:#c89539;stroke-width:2px;fill:#fff"/>
            </g>
        </g>
    </g>
</svg>
