<svg xmlns="http://www.w3.org/2000/svg" width="91.925" height="88" viewBox="0 0 91.925 88">
    <defs>
        <style>
            .prefix__cls-1{fill:#fff}
        </style>
    </defs>
    <g id="prefix__ic_students" transform="translate(0 -10.932)">
        <path id="prefix__Path_30" d="M90.579 96.24h-.719a27.537 27.537 0 0 1-1.635-8.14 27.541 27.541 0 0 1 1.635-8.14h.719a1.346 1.346 0 0 0 0-2.692H80.422a1.346 1.346 0 0 0 0-2.692h-.146a20.773 20.773 0 0 1-3.337-4.716 1.346 1.346 0 0 0-2.393 1.233 23.442 23.442 0 0 0 2.207 3.482H14.4A6.683 6.683 0 0 1 7.727 67.9V52.844a6.683 6.683 0 0 1 6.673-6.676h39.434v4.861a1.886 1.886 0 0 0 1.231 1.779 1.993 1.993 0 0 0 2.1-.524l1.469-1.672 1.466 1.672a1.9 1.9 0 0 0 3.33-1.255v-4.861h13.317a23.275 23.275 0 0 0-4.791 14.2 23.666 23.666 0 0 0 .359 4.108 1.346 1.346 0 0 0 2.651-.469 20.948 20.948 0 0 1-.318-3.639 20.614 20.614 0 0 1 5.625-14.2h.15a1.346 1.346 0 1 0 0-2.692h9.7a1.346 1.346 0 1 0 0-2.692h-.563a24.673 24.673 0 0 1-1.446-7.256 24.671 24.671 0 0 1 1.446-7.255h.563a1.346 1.346 0 1 0 0-2.692h-9.881a1.346 1.346 0 0 0 .938-2.311 5.593 5.593 0 0 1 0-8.026 1.355 1.355 0 0 0-.939-2.311H19.512a1.346 1.346 0 1 0 0 2.692h58.113a8.33 8.33 0 0 0 0 7.264H6.387a3.632 3.632 0 0 1 0-7.264h6.283a1.346 1.346 0 0 0 0-2.692H6.387a6.324 6.324 0 0 0 0 12.648h12.558a9.948 9.948 0 1 0 0 19.9H14.4a9.378 9.378 0 0 0-9.368 9.368V67.9a9.378 9.378 0 0 0 9.368 9.368h-3.568a10.832 10.832 0 1 0 0 21.664h56.634a1.346 1.346 0 0 0 0-2.692H10.832a8.14 8.14 0 0 1 0-16.28h76.187a28.529 28.529 0 0 0-1.486 8.14 28.534 28.534 0 0 0 1.486 8.14H74.365a1.346 1.346 0 1 0 0 2.692h16.214a1.346 1.346 0 0 0 0-2.692zM59.912 47.99a1.7 1.7 0 0 0-2.559 0l-.827.941V32.642h4.213v16.289zM11.689 33.528a7.264 7.264 0 0 1 7.255-7.255h67.774a25.739 25.739 0 0 0-1.3 7.255 25.739 25.739 0 0 0 1.3 7.256H63.431v-8.142h12.2a1.346 1.346 0 1 0 0-2.692H53.372a1.346 1.346 0 1 0 0 2.692h.462v8.142H18.945a7.264 7.264 0 0 1-7.256-7.256z" class="prefix__cls-1" data-name="Path 30"/>
        <path id="prefix__Path_31" d="M214.41 277.965H244a1.346 1.346 0 1 0 0-2.692h-29.59a1.346 1.346 0 1 0 0 2.692z" class="prefix__cls-1" data-name="Path 31" transform="translate(-174.81 -216.88)"/>
        <path id="prefix__Path_32" d="M291.115 443.246a1.346 1.346 0 1 0 0 2.692h6.047a1.346 1.346 0 0 0 0-2.692z" class="prefix__cls-1" data-name="Path 32" transform="translate(-237.743 -354.695)"/>
        <path id="prefix__Path_33" d="M130.9 443.246a1.346 1.346 0 1 0 0 2.692h22.871a1.346 1.346 0 1 0 0-2.692z" class="prefix__cls-1" data-name="Path 33" transform="translate(-106.294 -354.695)"/>
        <path id="prefix__Path_34" d="M240.584 119.549h3.459a1.346 1.346 0 1 0 0-2.692h-3.459a1.346 1.346 0 1 0 0 2.692z" class="prefix__cls-1" data-name="Path 34" transform="translate(-196.285 -86.907)"/>
        <path id="prefix__Path_35" d="M88.075 261.489a2.049 2.049 0 0 0 2.147-.174l4.247-3.106 4.247 3.106a2.1 2.1 0 0 0 3.274-1.662V247.59h3.958a1.346 1.346 0 1 0 0-2.692H83.691a1.346 1.346 0 1 0 0 2.692h3.257v12.063a2.05 2.05 0 0 0 1.127 1.836zm11.225-3.083l-4.035-2.951a1.346 1.346 0 0 0-1.589 0l-4.035 2.951V247.59H99.3v10.816z" class="prefix__cls-1" data-name="Path 35" transform="translate(-67.561 -191.959)"/>
    </g>
</svg>
