<svg xmlns="http://www.w3.org/2000/svg" id="prefix__ic_small_project" width="54.025" height="54.958" viewBox="0 0 54.025 54.958">
    <defs>
        <style>
            .prefix__cls-1{fill:#fff}
        </style>
    </defs>
    <g id="prefix__Group_638" data-name="Group 638">
        <g id="prefix__Group_637" data-name="Group 637">
            <path id="prefix__Path_1316" d="M347.444 336h-7.452v12.109h7.452zm-1.863 10.246h-3.726v-8.383h3.726z" class="prefix__cls-1" data-name="Path 1316" transform="translate(-300.871 -296.877)"/>
            <path id="prefix__Path_1317" d="M69.142 264H46.786a2.794 2.794 0 0 0-2.794 2.795v17.7h27.945v-17.7A2.794 2.794 0 0 0 69.142 264zm.931 18.63H45.855v-12.109h24.219zm0-13.972H45.855v-1.863a.932.932 0 0 1 .931-.931h22.356a.932.932 0 0 1 .931.931z" class="prefix__cls-1" data-name="Path 1317" transform="translate(-39.336 -233.261)"/>
            <path id="prefix__Path_1318" d="M57.969 12.723c-.009-.026-.019-.051-.03-.076s-.013-.04-.023-.058l-4.54-8.173V.931A.932.932 0 0 0 52.444 0H8.664a.932.932 0 0 0-.931.931V4.46l-3.646 8.2v.008a.088.088 0 0 1-.01.033.917.917 0 0 0-.06.3c0 .014-.008.026-.008.04v41.917h54.024V13.024a.911.911 0 0 0-.064-.301zm-2.451-.614H44.732l-2.173-6.52H51.9zm-12.389 1.863v9.315a3.726 3.726 0 0 1-3.729 3.726h-3.723a3.726 3.726 0 0 1-3.726-3.726v-9.315zm-11.178-1.863v-6.52h8.643l2.173 6.52zM9.6 1.863h41.912v1.863H9.6V1.863zm9.676 10.246l2.173-6.52h8.643v6.52zm10.817 1.863v8.383a4.663 4.663 0 0 1-4.657 4.657h-1.868a4.663 4.663 0 0 1-4.657-4.657v-8.383zM9.269 5.589H19.48l-2.173 6.52H6.371zm-3.4 8.383h11.178v8.011a5.036 5.036 0 0 1-5.03 5.03h-1.49a4.663 4.663 0 0 1-4.657-4.657v-8.384zM52.444 53.1H41.266V37.26h11.178zm0-17.7H41.266v-1.121a1.677 1.677 0 0 1 1.677-1.679h7.825a1.677 1.677 0 0 1 1.677 1.677V35.4zm3.726 17.7h-1.863V34.279a3.54 3.54 0 0 0-3.54-3.54h-7.824a3.54 3.54 0 0 0-3.54 3.54V53.1H5.869V26.91a6.5 6.5 0 0 0 4.657 1.966h1.49a6.885 6.885 0 0 0 5.88-3.314 6.521 6.521 0 0 0 5.671 3.314h1.863a6.521 6.521 0 0 0 5.382-2.847 5.589 5.589 0 0 0 4.864 2.847H39.4a5.589 5.589 0 0 0 4.864-2.847 6.521 6.521 0 0 0 5.382 2.847h1.863a6.5 6.5 0 0 0 4.661-1.966V53.1zm0-30.739a4.663 4.663 0 0 1-4.657 4.657h-1.864a4.663 4.663 0 0 1-4.657-4.657v-8.389H56.17z" class="prefix__cls-1" data-name="Path 1318" transform="translate(-4.008)"/>
        </g>
    </g>
</svg>
