<svg xmlns="http://www.w3.org/2000/svg" id="prefix__ic_travel" width="64.83" height="76.374" viewBox="0 0 64.83 76.374">
    <defs>
        <style>
            .prefix__cls-1{fill:#fff}
        </style>
    </defs>
    <path id="prefix__Path_1319" d="M52.161 55.192a4.177 4.177 0 0 1-4.172 4.172H17.183a4.139 4.139 0 0 1-3.592-2.087.952.952 0 0 0-.6-.4.933.933 0 0 0-.724.133.96.96 0 0 0-.332 1.246 6.132 6.132 0 0 0 4.028 2.893l.255.054v1.692a3.53 3.53 0 0 0 7.06 0v-1.6h18.614v1.6a3.53 3.53 0 0 0 7.06 0V61.22l.255-.053a6.134 6.134 0 0 0 4.879-5.975v-8.958a.963.963 0 0 0-1.925 0zm-30.807 7.7a1.6 1.6 0 1 1-3.209 0v-1.6h3.209zm25.672 0a1.6 1.6 0 1 1-3.209 0v-1.6h3.209z" class="prefix__cls-1" data-name="Path 1319" transform="translate(-11.086 9.951)"/>
    <path id="prefix__Path_1320" d="M13.175 63.776V31.452a4.177 4.177 0 0 1 4.172-4.172h30.807a.963.963 0 1 0 0-1.925h-.321V7.064a3.534 3.534 0 0 0-3.53-3.53h-2.43l-.095-.108a3.512 3.512 0 0 0-2.61-1.176H26.332a3.516 3.516 0 0 0-2.61 1.176l-.095.108H21.2a3.534 3.534 0 0 0-3.53 3.53v18.291h-.321a6.114 6.114 0 0 0-6.1 6.1v32.321a.963.963 0 1 0 1.925 0zM42.7 5.459h1.6a1.607 1.607 0 0 1 1.6 1.6v18.296h-3.2zm-17.97.321a1.607 1.607 0 0 1 1.6-1.6h12.838a1.607 1.607 0 0 1 1.6 1.6v2.567a1.606 1.606 0 0 1-1.6 1.6H26.332a1.606 1.606 0 0 1-1.6-1.6zm-5.137 1.284a1.607 1.607 0 0 1 1.6-1.6h1.6v2.883a3.534 3.534 0 0 0 3.53 3.53h12.845a3.5 3.5 0 0 0 1.172-.216l.433-.16v13.854H24.728v-10.59a.963.963 0 1 0-1.925 0v10.59h-3.21z" class="prefix__cls-1" data-name="Path 1320" transform="translate(-11.25 -2.25)"/>
    <path id="prefix__Path_1321" d="M31.751 55.561L43.978 48.5a.963.963 0 0 0-.232-1.764.927.927 0 0 0-.25-.035.954.954 0 0 0-.48.131l-12.228 7.06a.961.961 0 0 0-.356 1.313.986.986 0 0 0 1.319.356z" class="prefix__cls-1" data-name="Path 1321" transform="translate(-5.846 10.357)"/>
    <path id="prefix__Path_1322" d="M29.853 33.491a.961.961 0 0 0 1.313.361l4.459-2.574a.963.963 0 0 0-.964-1.667l-4.445 2.566a.966.966 0 0 0-.363 1.314z" class="prefix__cls-1" data-name="Path 1322" transform="translate(-6.01 5.474)"/>
    <path id="prefix__Path_1323" d="M57.269 41.21a.963.963 0 1 0 .95 1.675l4.459-2.574a.963.963 0 1 0-.95-1.676l-.173-.27.16.277z" class="prefix__cls-1" data-name="Path 1323" transform="translate(1.662 7.993)"/>
    <path id="prefix__Path_1324" d="M62.46 46.512a.977.977 0 0 0-.73.091l-.017.013-4.444 2.564a.962.962 0 0 0-.363 1.313.965.965 0 0 0 1.313.361l4.459-2.575a.963.963 0 0 0-.218-1.766z" class="prefix__cls-1" data-name="Path 1324" transform="translate(1.662 10.294)"/>
    <path id="prefix__Path_1325" d="M23.739 50.152a.962.962 0 0 0 1.314.352l4.447-2.567a.962.962 0 0 0-.493-1.791.948.948 0 0 0-.471.125l-4.446 2.565a.966.966 0 0 0-.353 1.316z" class="prefix__cls-1" data-name="Path 1325" transform="translate(-7.745 10.199)"/>
    <path id="prefix__Path_1326" d="M62.016 46.012L60.367 41.9l11.024-6.367a.963.963 0 0 0 .353-1.316A11.263 11.263 0 0 0 56.4 30.109l-2.136 1.232-2.738-3.485a9.844 9.844 0 0 0-12.656-2.449.963.963 0 0 0-.35 1.314l4.05 7.016a.963.963 0 1 0 1.667-.963l-3.544-6.138.358-.131a7.949 7.949 0 0 1 8.971 2.542l2.565 3.268-17.579 10.148-.16-.277a6.114 6.114 0 0 0-8.329-2.232.946.946 0 0 0-.448.584.956.956 0 0 0 .095.73l3.209 5.558a9.545 9.545 0 0 0 8.268 4.8 9.728 9.728 0 0 0 2.244-.263 47.73 47.73 0 0 0 6.885-2.2.963.963 0 1 0-.723-1.784 45.735 45.735 0 0 1-6.607 2.113 7.567 7.567 0 0 1-7.63-2.525l-.244-.293 25.8-14.9a9.294 9.294 0 0 1 4.812-1.244l1.155.023-2.782 1.6a.962.962 0 0 0 .231 1.764.965.965 0 0 0 .732-.095l4.3-2.482.153.069a9.317 9.317 0 0 1 3.367 2.66l.228.291-9.921 5.74-1.519-3.783a.962.962 0 1 0-1.792.7l3.9 9.716a7.957 7.957 0 0 1-2.289 9.037l-.293.245-8.477-14.691a.963.963 0 1 0-1.675.95l8.993 15.576a.962.962 0 0 0 1.309.35 9.829 9.829 0 0 0 4.216-12.188zM30.56 45.03l-2.2-3.815.445-.083a4.173 4.173 0 0 1 4.376 2.015l.16.279z" class="prefix__cls-1" data-name="Path 1326" transform="translate(-7.056 3.945)"/>
</svg>
