<svg xmlns="http://www.w3.org/2000/svg" width="61.238" height="88" viewBox="0 0 61.238 88">
    <path id="prefix__ic_woman" d="M133.306 77.87v8.664a1.467 1.467 0 1 1-2.933 0V77.87a12.2 12.2 0 0 0-12.205-12.2 9.005 9.005 0 0 1-7.747-4.35 1.467 1.467 0 1 1 2.505-1.526 6.093 6.093 0 0 0 5.242 2.943 15.13 15.13 0 0 1 15.138 15.133zm-24.469-11.358l-5.23 4.049-8.893-6.885a8.985 8.985 0 0 0 3.362-6.332 19.619 19.619 0 0 0 25.148-18.822V28.139a1.466 1.466 0 0 0-1.462-1.374 6.036 6.036 0 0 1-3.827-.707c-2.759-1.66-2.773-5.3-2.773-5.334a1.468 1.468 0 0 0-2.314-1.206 47.267 47.267 0 0 1-20.8 8.252 1.467 1.467 0 0 0 .2 2.919 48.256 48.256 0 0 0 10.393-2.546 50.287 50.287 0 0 0 9.949-4.919 8.283 8.283 0 0 0 7.7 6.517v8.78a16.683 16.683 0 0 1-33.367 0V28.233a1.467 1.467 0 1 0-2.933 0v10.29a19.641 19.641 0 0 0 11.183 17.709v.387a6.115 6.115 0 0 1-6.128 6.113 15.131 15.131 0 0 0-5.413 1l-.947-.754a17.914 17.914 0 0 1-3.755-23.965 20.262 20.262 0 0 0 3.41-11.268V19.8A16.886 16.886 0 0 1 99.207 2.933h8.8A16.886 16.886 0 0 1 124.873 19.8v7.944a20.159 20.159 0 0 0 3.394 11.245 17.916 17.916 0 0 1-.143 20.134 1.467 1.467 0 1 0 2.415 1.664 20.847 20.847 0 0 0 .167-23.429 17.235 17.235 0 0 1-2.9-9.615V19.8A19.823 19.823 0 0 0 108.007 0h-8.8a19.823 19.823 0 0 0-19.8 19.8v7.944a17.337 17.337 0 0 1-2.918 9.643 20.842 20.842 0 0 0 4.277 27.806 15.1 15.1 0 0 0-6.859 12.677v8.664a1.467 1.467 0 0 0 2.933 0V77.87a12.2 12.2 0 0 1 12.205-12.2 9.094 9.094 0 0 0 2.853-.458l10.81 8.369a1.467 1.467 0 0 0 1.8 0l6.128-4.744a1.467 1.467 0 0 0-1.8-2.319z" transform="translate(-72.987)" style="fill:#fff"/>
</svg>
