<svg xmlns="http://www.w3.org/2000/svg" width="90.429" height="88" viewBox="0 0 90.429 88">
    <defs>
        <style>
            .prefix__cls-1{fill:#fff}
        </style>
    </defs>
    <g id="prefix__ic_youth" transform="translate(456.592 -224.103)">
        <g id="prefix__Group_10" data-name="Group 10" transform="translate(-456.592 224.103)">
            <path id="prefix__Path_23" d="M-278.158 306.678c.433 3.676.8 7.069 1.237 10.453a128.419 128.419 0 0 1 1.445 21.6 10.468 10.468 0 0 1-.3 2.458 4.951 4.951 0 0 1-5.019 3.855 5.155 5.155 0 0 1-4.643-4.351 16.074 16.074 0 0 1-.161-2.326c-.17-4-.3-7.993-.52-11.986-.068-1.219-.143-2.834-1.759-2.861-1.647-.027-1.72 1.582-1.786 2.809-.22 4.1-.318 8.2-.556 12.294a10.41 10.41 0 0 1-.732 3.608 4.494 4.494 0 0 1-4.314 2.814 4.486 4.486 0 0 1-4.317-2.805 10.134 10.134 0 0 1-.765-3.606c-.335-7.306.568-14.527 1.616-21.736.4-2.72.764-5.445 1.08-8.175a14.384 14.384 0 0 0-3.4-11 34.332 34.332 0 0 1-7.685-18.753 11.887 11.887 0 0 1 .065-3.552 4.163 4.163 0 0 1 4.085-3.422 4.24 4.24 0 0 1 4.117 3.4c.463 1.809.722 3.67 1.209 5.471 1.625 6.005 5.456 9.461 11.732 10.216a38.874 38.874 0 0 1 11.938 3.408c9.454 4.434 13.572 16.637 9.515 25.062a4.663 4.663 0 0 1-4.138 3.062 4.354 4.354 0 0 1-4.547-5.167 31.963 31.963 0 0 0 .161-6.78c-.175-1.795-1.3-3.223-3.558-3.99zm-19.182 26.511c0 1.872-.041 3.746.021 5.617a5.107 5.107 0 0 0 .459 2.094 1.67 1.67 0 0 0 3.151.025 6.232 6.232 0 0 0 .46-2.4c.232-4.357.335-8.722.645-13.074.215-3.017 2.123-4.979 4.562-5.051 2.479-.073 4.5 1.741 4.777 4.783.382 4.238.455 8.5.685 12.757a7.787 7.787 0 0 0 .381 2.732 2.427 2.427 0 0 0 1.722 1.231c.52.032 1.291-.637 1.584-1.19a5.479 5.479 0 0 0 .382-2.26c.388-8.989-1.15-17.827-2.082-26.714a27.144 27.144 0 0 1-.051-6.016 2.412 2.412 0 0 1 3.309-1.934 7.889 7.889 0 0 1 5.49 5.412 17.092 17.092 0 0 1 .259 8.309 2.25 2.25 0 0 0 .661 1.913c.939.543 1.6-.177 2.042-1.065a13.56 13.56 0 0 0 1.131-8.827c-1.236-6.237-4.769-10.847-10.856-12.99a73.739 73.739 0 0 0-10.7-2.675c-5.8-1.105-9.891-4.238-12-9.73a59.614 59.614 0 0 1-1.894-7.055c-.226-.91-.252-2.1-1.5-1.956-1.175.137-1.164 1.282-1.14 2.241.009.363.048.727.084 1.089a31.088 31.088 0 0 0 6.794 16.97 18.2 18.2 0 0 1 4.364 13.294c-.156 1.914-.506 3.812-.742 5.721z" class="prefix__cls-1" data-name="Path 23" transform="translate(354.951 -257.049)"/>
            <path id="prefix__Path_24" d="M-443.012 306.863a4.819 4.819 0 0 0-3.842 4.787 42.773 42.773 0 0 0 .412 5.423c.367 2.6-.571 4.563-2.717 5.3a4.529 4.529 0 0 1-5.7-2.53c-3.047-6.211-1.738-12.089 1.336-17.872 2.545-4.787 6.757-7.41 11.681-8.964a76.021 76.021 0 0 1 9.557-2.172 12.039 12.039 0 0 0 9.855-8.281 41.757 41.757 0 0 0 1.558-6.181c.57-2.956 2.413-4.686 4.881-4.369 2.351.3 4.026 2.675 3.8 5.452-.6 7.378-2.842 14.115-7.623 19.91a14.51 14.51 0 0 0-3.659 8.751 43.253 43.253 0 0 0 .6 6.925c1.09 8.4 2.5 16.769 2.1 25.29-.024.519 0 1.041-.038 1.559a5.255 5.255 0 0 1-5.064 5.136 5.163 5.163 0 0 1-4.955-5.063c-.183-3.267-.133-6.545-.246-9.817-.051-1.452-.215-2.9-.4-4.345-.142-1.1-.381-2.371-1.79-2.323-1.276.044-1.584 1.227-1.641 2.3-.227 4.3-.36 8.613-.623 12.914a10.31 10.31 0 0 1-.771 3.6 4.442 4.442 0 0 1-4.358 2.732 4.5 4.5 0 0 1-4.266-2.886 10.527 10.527 0 0 1-.727-3.618c-.365-8.458.942-16.8 1.919-25.155.248-2.147.476-4.297.721-6.503zm.387 26.5c0 2.028-.082 4.061.03 6.083.068 1.227.514 2.419 2.042 2.515 1.065.067 1.912-1.07 2-2.558.029-.466 0-.936 0-1.4.007-1.872-.085-3.751.047-5.614a81.765 81.765 0 0 1 .888-8.36 4.471 4.471 0 0 1 4.153-3.643 4.534 4.534 0 0 1 4.473 3.011 8.416 8.416 0 0 1 .576 2.571c.218 4.15.342 8.3.551 12.455a6.457 6.457 0 0 0 .5 2.544 1.628 1.628 0 0 0 3.053-.011 6.553 6.553 0 0 0 .493-2.549c.434-8.577-1.085-16.991-2.111-25.45a40.589 40.589 0 0 1-.374-8.371 16.886 16.886 0 0 1 4.1-9.123 29.775 29.775 0 0 0 6.567-14.936 10.372 10.372 0 0 0 .351-3.556c-.689-3.125-2.431-.932-2.431-.932a33.486 33.486 0 0 0-.688 3.7c-1.84 8.536-6.193 12.8-14.386 14.279-2.754.5-5.493 1.14-8.184 1.909-6.645 1.9-10.63 6.4-12.242 13.036a13.9 13.9 0 0 0 .934 9.291c.4.862.947 1.574 2.031 1.242s.936-1.21.75-2.059c-.078-.355-.151-.712-.209-1.072-.664-4.108.012-7.846 2.947-11 1.067-1.148 3.206-2.006 4.324-1.612 1.574.555 2.229 1.613 2.167 3.868-.051 1.864-.211 3.73-.411 5.585z" class="prefix__cls-1" data-name="Path 24" transform="translate(456.592 -257.033)"/>
            <path id="prefix__Path_25" d="M-264.07 287.709a7.213 7.213 0 0 1 7.033-7.418 7.328 7.328 0 0 1 6.939 7.553 7.214 7.214 0 0 1-7.073 7.379c-3.909-.042-6.916-3.317-6.899-7.514zm3.04.125a4.144 4.144 0 0 0 3.947 4.356 4.218 4.218 0 0 0 3.937-4.4 4.275 4.275 0 0 0-4.057-4.462 4.24 4.24 0 0 0-3.827 4.506z" class="prefix__cls-1" data-name="Path 25" transform="translate(324.153 -262.756)"/>
            <path id="prefix__Path_26" d="M-403.979 287.781a7.223 7.223 0 0 1 6.967-7.487 7.29 7.29 0 0 1 7 7.483 7.2 7.2 0 0 1-6.994 7.449 7.149 7.149 0 0 1-6.973-7.445zm3.037.081a4.151 4.151 0 0 0 3.978 4.333 4.228 4.228 0 0 0 3.912-4.423 4.284 4.284 0 0 0-3.923-4.437 4.239 4.239 0 0 0-3.967 4.527z" class="prefix__cls-1" data-name="Path 26" transform="translate(420.399 -262.758)"/>
            <path id="prefix__Path_27" d="M-296.8 240.018l-2.417-1.837 5.87-7.76 2.447 1.8z" class="prefix__cls-1" data-name="Path 27" transform="translate(348.333 -228.449)"/>
            <path id="prefix__Path_28" d="M-343.055 238.143l-2.431 1.824-5.881-7.758 2.407-1.855z" class="prefix__cls-1" data-name="Path 28" transform="translate(384.206 -228.404)"/>
            <path id="prefix__Path_29" d="M-313.691 233.055h-2.809V224.1h2.809z" class="prefix__cls-1" data-name="Path 29" transform="translate(360.221 -224.103)"/>
        </g>
    </g>
</svg>
